<svg width="85" height="49" viewBox="0 0 85 49" fill="none" xmlns="http://www.w3.org/2000/svg">
<path d="M41.8483 21.0181H40.2574C40.2574 21.0181 39.4007 21.741 39.5384 23.0024C39.6761 24.2638 41.6494 25.3251 41.6494 25.3251C41.6494 25.3251 40.8234 23.8638 40.701 23.0024C40.5786 22.141 41.8483 21.0181 41.8483 21.0181Z" fill="#D74814"/>
<path d="M35.7603 23.9717C35.7603 23.9717 36.1121 23.2026 36.7393 23.9717C37.3665 24.7408 37.7948 25.5869 41.7414 25.5869C45.6881 25.5869 45.8258 24.264 45.8258 24.264L46.3 25.2177L45.0303 26.4175L38.8854 26.0378L35.7603 24.7409V23.9717Z" fill="#192E72"/>
<path d="M22.3597 6.80448H25.2509H29.5035L31.691 3.60494H22.3597L23.1398 0.574867C21.5954 -0.0302075 19.8204 1.34389 19.8204 4.14332H18V6.09689H18.9943C19.0384 8.3417 19.5204 9.20622 21.7784 9.54255L22.3597 6.80448Z" fill="#D74814"/>
<path fill-rule="evenodd" clip-rule="evenodd" d="M22.023 15.0962H29.7175L42.9801 18.9572L44.0356 21.2645C44.0356 21.2645 38.9218 20.5958 37.6369 21.8126C36.3519 23.0294 36.7542 23.9872 36.7542 23.9872H35.8822V24.6794L36.4023 24.9871C36.4023 24.9871 34.6891 25.8024 34.6279 26.6945C34.6092 26.9662 34.5991 27.2962 34.5884 27.6443C34.564 28.4398 34.5367 29.3297 34.3984 29.8326C34.1995 30.5555 31.9356 33.7089 31.9356 33.7089C31.34 35.0834 31.3661 35.9028 31.9356 37.4315C31.9356 37.4315 32.5321 40.0004 30.207 40.0004C28.6636 40.0004 27.8009 38.8685 27.2208 38.1074C26.927 37.7219 26.7056 37.4315 26.5051 37.4315C26.3523 37.4315 26.0522 37.4466 25.6825 37.4652L25.6824 37.4652C24.6079 37.5194 22.9457 37.6031 22.6043 37.4315C22.1453 37.2008 21.2693 36.1824 20.6309 34.9395C20.4496 34.5864 20.5865 34.2573 20.7179 33.9415C20.8212 33.6934 20.921 33.4536 20.8604 33.2167C20.7969 32.9683 20.5823 32.6551 20.3671 32.3412C20.1159 31.9747 19.864 31.6071 19.8508 31.34C19.8289 30.898 20.0674 30.6173 20.2914 30.3538C20.4343 30.1856 20.5713 30.0243 20.6309 29.8326C20.7839 29.3403 21.3832 27.4324 22.6043 25.8024C23.3559 24.799 24.3865 23.9662 25.1097 23.3819C25.4882 23.0761 25.7825 22.8383 25.9085 22.6797C28.0348 20.0032 26.8722 16.9728 24.8683 16.9728C22.7267 16.9728 22.1094 16.6968 22.023 15.0962ZM25.3577 33.7089H22.4054V34.4473L23.3844 36.0163H26.3674V34.9703L25.3577 33.7089Z" fill="#192E72"/>
<path d="M25.4344 33.5393L23.9353 32.9548C27.7392 24.5625 30.2597 23.1469 35.2093 24.4791C35.7906 24.6356 35.3929 25.6256 34.4139 25.3251C31.1836 24.3338 29.2405 25.7814 25.4344 33.5393Z" fill="#0B7DE3"/>
<path d="M29.9409 7.4946H25.372C24.2604 7.48148 24.2351 7.74612 25.0266 8.60002L24.2148 11.1978H28.0655L29.9409 7.4946Z" fill="#0B7DE3"/>
<path fill-rule="evenodd" clip-rule="evenodd" d="M75.1502 1.80526H76.9859L77.5672 3.48194L77.4907 5.32784H53.1682V12.9575L49.2521 13.0344L48.5637 13.6959L48.3802 15.4802L49.2521 16.1263H52.0974H78.6074L78.5003 17.7261L76.4811 18.8951H55.6004L53.4282 21.5717L52.9387 21.8947L52.4492 22.4639C52.4492 22.4639 50.7053 24.8482 50.3535 25.1712C50.0017 25.4941 46.5598 25.4941 46.2692 25.1712C45.9785 24.8482 42.5214 19.0182 42.5214 19.0182L29.58 15.1418H21.9467V15.3572C21.9467 15.3572 21.5183 15.4188 21.3807 15.3572C21.243 15.2956 21.2124 15.0035 21.2124 14.788C21.2124 14.5726 22.0537 11.8808 22.1608 11.4962C22.2679 11.1115 22.4515 10.7732 22.788 10.7732C23.1245 10.7732 23.92 10.7732 23.92 10.7732H27.1783L28.7386 7.52752H24.9908L24.8072 6.89684L25.9545 5.12786H30.1765C30.1765 5.12786 31.8898 2.22058 32.4558 2.22058C33.0218 2.22058 33.6796 2.22058 33.6796 2.22058C33.6796 2.22058 33.9396 1.1592 34.5974 1.15919C35.2552 1.15919 52.4951 0.913075 52.7399 1.15919C52.9846 1.40531 53.1682 1.80526 53.1682 1.80526H75.1502ZM52.6022 1.80526H52.3268H38.024V2.0207H37.8557V2.18991H38.024H52.801V1.97456H52.6022V1.80526ZM37.4427 2.0207H35.4847V2.18991H37.4427V2.0207Z" fill="#76B5E1"/>
<path d="M28.0133 9.08545H26.211L25.4812 10.7926H27.1709L28.0133 9.08545Z" fill="#192E72"/>
<path d="M53.9145 2.36065L51.8232 0.24707L29.7112 14.7326L42.8001 18.3299L46.2926 24.5533V25.578H54.0949L54.4134 25.1724H54.6576L57.3008 22.4503L57.8953 21.2548H59.2222L59.4664 21.0306H60.2095L60.3156 21.2548H62.4918L62.7253 20.9772H63.479L63.617 21.2548H65.6764L66.0055 20.9132H66.7698L66.9078 21.2548H69.0309L69.3069 20.9132H69.9651L70.1562 21.1801H72.3217L72.619 20.9132H73.2771L73.4151 21.1801H76.6634C77.1805 21.2079 77.2759 20.897 77.5127 20.4542C77.7993 20.4542 77.9373 20.4542 77.9798 20.1446H78.2133L79.5296 19.1305L82.2472 16.0669L83.4998 14.8073L82.4383 13.7398H55.4962L54.5726 13.0033L54.3816 4.39951L53.9145 2.36065Z" fill="#76B5E1"/>
<path d="M59.5513 18.3619V15.5117L59.0311 17.9776L54.2329 23.8166L54.5301 24.756L59.5513 18.3619Z" fill="#0B7DE3"/>
<path d="M59.1903 18.9917V19.3973H60.6234L60.7402 18.9917H61.3134V19.2372H78.6591L77.9797 18.554H59.5513L59.1903 18.9917Z" fill="#0B7DE3"/>
<path d="M50.017 20.2798C49.3898 20.2336 48.7779 20.2798 47.6 20.2798C46.4221 20.2798 47.2023 21.6642 47.2023 21.6642L48.1966 23.387C48.4414 23.9562 49.145 23.91 49.3898 23.387L50.5371 21.6642C50.8371 20.9988 50.6442 20.3259 50.017 20.2798Z" fill="#0B7DE3"/>
<path d="M41.5884 11.8965H40.0893L38.9879 14.45L30.1309 14.5576L31.3393 14.973H40.227L41.5884 11.8965Z" fill="#0B7DE3"/>
<path d="M53.2651 2.37996L51.9465 0.951984L51.7437 0.764987H52.3692L52.5044 1.03698L53.5187 1.03698L53.6202 0.764987L55.6319 0.764987L55.7672 1.03698H56.7308L56.8998 0.764987L58.8947 0.764987L59.0299 1.03698H59.909L60.0611 0.764987L62.0222 0.764987L62.1574 1.03698H63.121L63.2394 0.764987L65.2849 0.764987L65.3864 1.03698H66.35L66.4683 0.764987L68.5308 0.764987L68.6829 1.03698H69.5789L69.6973 0.764987L71.709 0.764987C71.9626 0.764987 72.0978 1.11631 72.1655 1.29198C72.1655 1.29198 78.7248 1.07098 78.8093 1.20698C78.8938 1.34298 79.1136 1.73397 79.1136 1.73397H79.8236C79.8236 1.73397 80.297 0.57799 80.3984 0.390993C80.4999 0.203996 80.6858 0 80.8887 0L82.7314 0L83.6781 1.00298V2.09096C83.6781 2.09096 82.5792 2.88995 82.5792 3.04295C82.5792 3.19594 82.7314 4.14793 82.7314 4.14793C82.7314 4.14793 82.9004 4.14793 82.9173 4.23293C82.9343 4.31793 83.1709 6.08589 83.1709 6.20489C83.1709 6.32389 83.0357 6.42589 83.0357 6.42589C83.0357 6.42589 83.0188 6.90188 83.1709 7.13988C83.3231 7.37787 84.2191 7.95586 84.2191 8.17686C84.2191 8.39786 83.9824 8.39786 83.9993 8.78885C84.0162 9.17984 84.4388 9.33284 84.6079 9.67283C84.777 10.0128 85.0305 11.6788 84.9967 12.5118C84.9629 13.3448 84.7093 14.7387 84.6079 14.9767C84.5065 15.2147 84.0838 15.5547 84.0838 15.5547C84.0838 15.5547 84.5741 15.8777 84.6079 16.0647C84.6417 16.2517 84.4557 19.2267 84.4557 19.2267L83.8979 19.6177L78.771 19.6177C79.9805 18.2464 81.2907 17.0645 82.5623 14.9767L82.2918 14.2458L54.6514 14.2458L53.7385 13.4468C53.7385 13.4468 53.4511 9.55384 53.4511 9.04384C53.4511 8.53385 53.5187 5.08291 53.5187 4.50492C53.5187 3.92693 53.2651 2.37996 53.2651 2.37996Z" fill="#D74814"/>
<rect width="0.777712" height="4.40213" rx="0.388856" transform="matrix(0.992941 -0.11861 0.117316 0.993094 81.1648 3.33008)" fill="#9E3813"/>
<path d="M80.5171 9.67275H79.6211L79.8409 10.2337H81.2271L80.5171 9.67275Z" fill="#9E3813"/>
<path d="M83.4924 10.2337H82.2583L82.0048 9.67275H82.8162L83.4924 10.2337Z" fill="#9E3813"/>
<path d="M54.5672 9.00977H53.4514C53.5446 11.0114 53.6114 11.928 53.7388 13.4467L54.6517 14.2287H82.3091L82.5626 15.0107L82.3429 15.3507H84.3546C84.828 14.9257 84.9125 13.6507 84.9801 12.7497H54.5672L55.142 12.2907V11.8827H65.9953C65.9953 11.5427 66.6039 11.5597 66.6039 11.8827H67.1449C67.3815 11.8827 67.483 11.7127 67.483 11.3047V10.7947C67.483 10.3867 67.2632 10.3867 66.6039 10.3867C66.6039 10.7097 65.9953 10.7097 65.9953 10.3867H55.142V9.55376L54.5672 9.00977Z" fill="#9E3813"/>
<rect x="44.9729" y="18.4478" width="7.62871" height="1.18721" rx="0.593607" fill="#0B7DE3"/>
<rect x="43.7014" y="16.4385" width="10.1716" height="1.18721" rx="0.593607" fill="#0B7DE3"/>
<path d="M42.793 12.146H52.6013V13.3332H42.3389L42.793 12.146Z" fill="#0B7DE3"/>
<path d="M43.5198 10.1367H52.6016V11.3239H43.0657L43.5198 10.1367Z" fill="#0B7DE3"/>
<path d="M40.7954 7.30615H31.7136V6.11894H41.2495L40.7954 7.30615Z" fill="#0B7DE3"/>
<path d="M44.2463 8.12793H52.6016V9.31514H43.7922L44.2463 8.12793Z" fill="#0B7DE3"/>
<path d="M44.9729 6.11865H52.6016V7.30587H44.5188L44.9729 6.11865Z" fill="#0B7DE3"/>
<path d="M39.3421 11.3242H31.7133V10.137H39.7961L39.3421 11.3242Z" fill="#0B7DE3"/>
<path d="M45.6086 4.10986H52.6016V5.29708H45.1545L45.6086 4.10986Z" fill="#0B7DE3"/>
<rect x="55.0537" y="5.75342" width="23.5218" height="0.730678" fill="#9E3813"/>
<rect x="55.0537" y="8.12793" width="23.5218" height="0.730678" fill="#9E3813"/>
<rect x="55.0537" y="4.10986" width="23.5218" height="0.730678" fill="#9E3813"/>
<path d="M24.3769 29.8096H22.7507C22.7507 29.8096 21.8751 30.5405 22.0158 31.8157C22.1565 33.0909 24.1736 34.1639 24.1736 34.1639C24.1736 34.1639 23.3292 32.6865 23.2041 31.8157C23.0791 30.9448 24.3769 29.8096 24.3769 29.8096Z" fill="#D74814"/>
<path d="M18.1536 32.7958C18.1536 32.7958 18.5132 32.0182 19.1543 32.7958C19.7954 33.5733 20.2332 34.4287 24.2673 34.4287C28.3014 34.4287 28.4421 33.0912 28.4421 33.0912L28.9268 34.0554L27.629 35.2684H21.1557L18.1536 33.5733V32.7958Z" fill="#D74814"/>
<path d="M4.45629 15.4403H7.41151H11.7584L13.9943 12.2056H4.45629L5.25373 9.14233C3.67505 8.53062 1.8607 9.91979 1.8607 12.7499H0V14.7249H1.01635C1.06139 16.9944 1.55407 17.8684 3.86212 18.2084L4.45629 15.4403Z" fill="#DB6A0D"/>
<path fill-rule="evenodd" clip-rule="evenodd" d="M4.11217 23.8228H11.9771L25.5336 27.7261L26.6125 30.0588C26.6125 30.0588 21.2061 29.4672 20.1996 30.4013C19.1931 31.3354 19.1697 32.8113 19.1697 32.8113H18.2785V33.5111L18.8101 33.8222C18.8101 33.8222 17.0589 34.6464 16.9963 35.5484C16.9773 35.8229 16.9669 36.1566 16.956 36.5086C16.9311 37.3127 16.9032 38.2124 16.7618 38.7208C16.5585 39.4517 14.2444 42.6397 14.2444 42.6397C13.6356 44.0292 13.6623 44.8577 14.2444 46.4031C14.2444 46.4031 14.8542 49.0001 12.4775 49.0001C10.8999 49.0001 10.0181 47.8559 9.42516 47.0864C9.12481 46.6967 8.89857 46.4031 8.69355 46.4031C8.53743 46.4031 8.23065 46.4184 7.85272 46.4372L7.85263 46.4372C6.75437 46.4919 5.0553 46.5766 4.70631 46.4031C4.23723 46.1698 3.34181 45.1403 2.68928 43.8838C2.5039 43.5268 2.64387 43.1941 2.77819 42.8748C2.8837 42.624 2.98572 42.3815 2.92382 42.1421C2.8589 41.8909 2.63953 41.5743 2.4196 41.2569C2.16285 40.8864 1.90533 40.5148 1.89181 40.2448C1.86944 39.7979 2.11325 39.5141 2.34218 39.2477C2.48829 39.0777 2.62835 38.9147 2.68928 38.7208C2.84567 38.2232 3.45824 36.2943 4.70631 34.6464C5.4746 33.632 6.52809 32.7901 7.26729 32.1994C7.65418 31.8902 7.95498 31.6498 8.08374 31.4895C10.2572 28.7836 9.06881 25.72 7.02048 25.72C4.83143 25.72 4.20051 25.4409 4.11217 23.8228ZM7.52082 42.6397H4.50305V43.3862L5.50376 44.9724H8.5528V43.9149L7.52082 42.6397Z" fill="#76B5E1"/>
<path d="M7.59899 42.4687L6.06665 41.8778C9.95484 33.3934 12.5312 31.9622 17.5905 33.3091C18.1846 33.4673 17.7781 34.4682 16.7774 34.1644C13.4756 33.1621 11.4894 34.6256 7.59899 42.4687Z" fill="#0B7DE3"/>
<path d="M10.836 16.2025H7.25528C6.38407 16.1915 6.36429 16.4148 6.98457 17.1356L6.34839 19.3283H9.36616L10.836 16.2025Z" fill="#C4C4C4"/>
<path fill-rule="evenodd" clip-rule="evenodd" d="M58.4164 10.3863H60.2927L60.8869 12.0814L60.8087 13.9475H35.9473V21.6609L31.9444 21.7387L31.2408 22.4074L31.0532 24.2113L31.9444 24.8645H34.8527H61.9501L61.8407 26.4818L59.7767 27.6637H38.4334L36.2131 30.3696L35.7127 30.6962L35.2124 31.2715C35.2124 31.2715 33.4299 33.6821 33.0702 34.0086C32.7106 34.335 29.1925 34.335 28.8954 34.0086C28.5983 33.6821 25.0645 27.7881 25.0645 27.7881L11.8364 23.8692H4.03398V24.0869C4.03398 24.0869 3.59617 24.1492 3.45544 24.0869C3.31472 24.0246 3.28345 23.7293 3.28345 23.5115C3.28345 23.2937 4.14343 20.5724 4.25289 20.1835C4.36234 19.7947 4.54997 19.4526 4.89397 19.4526C5.23796 19.4526 6.05104 19.4526 6.05104 19.4526H9.38153L10.9764 16.1713H7.14557L6.95793 15.5337L8.13064 13.7454H12.4462C12.4462 13.7454 14.1974 10.8062 14.776 10.8062C15.3545 10.8062 16.0269 10.8062 16.0269 10.8062C16.0269 10.8062 16.2927 9.73315 16.965 9.73315C17.6374 9.73314 35.2593 9.48433 35.5095 9.73315C35.7596 9.98197 35.9473 10.3863 35.9473 10.3863H58.4164ZM35.3687 10.3863H35.0873H20.4675V10.6041H20.2955V10.7752H20.4675H35.572V10.5575H35.3687V10.3863ZM19.8734 10.6041H17.8719V10.7752H19.8734V10.6041Z" fill="#FFFFFD"/>
<path d="M10.1949 17.6797H8.69386L7.99023 19.3592H9.39748L10.1949 17.6797Z" fill="#DB6A0D"/>
<path d="M61.1373 15.3006C61.1373 15.3006 61.153 12.1439 61.1373 11.0707C61.1217 9.99757 59.1112 10.3208 58.3697 10.402C59.4659 10.6818 60.6057 11.0241 60.6057 11.9882V13.6833H59.1359H35.7756V21.6766C35.7756 21.6766 32.2105 21.4278 31.632 21.6766C31.0535 21.9254 30.5375 22.0032 30.5687 23.2939C30.6 24.5847 30.6469 24.8335 31.288 25.0979C31.9291 25.3623 61.4188 24.8491 61.4188 25.0979V25.9532C61.4188 26.342 59.777 27.4306 59.777 27.4306H37.8395L35.6036 30.7274C35.6036 30.7274 37.7926 30.7119 38.5119 30.7274C39.2311 30.743 39.794 32.0493 39.794 32.0493H46.0172C46.0172 32.0493 46.4237 33.8377 47.2368 33.6977C48.0499 33.5577 49.9888 33.2156 50.4579 33.169C50.9269 33.1223 50.9739 31.9715 51.1928 31.9715H53.804V30.9451C53.804 30.5097 54.7734 28.5969 54.7734 28.5969H62.1537C62.7828 28.1852 63.1047 27.9355 63.2326 27.2128H64.3584C65.062 27.2128 66.0002 25.2689 66.0002 24.538V22.081C66.0002 21.5833 65.062 19.7327 64.1395 19.7327H62.6228C62.607 19.3076 62.6073 19.0703 62.9511 18.6908V16.6225C62.3877 15.9278 62.0024 15.6242 61.1373 15.3006Z" fill="#D74814"/>
<path fill-rule="evenodd" clip-rule="evenodd" d="M35.7756 20.5414V21.6766C35.7756 21.6766 32.2105 21.4278 31.632 21.6766C31.5787 21.6995 31.526 21.721 31.4741 21.7421C30.9631 21.95 30.5403 22.1221 30.5687 23.2939C30.6 24.5847 30.6469 24.8335 31.288 25.0979C31.6151 25.2328 39.4504 25.1653 47.0481 25.0998C48.4541 25.0877 49.8521 25.0756 51.1928 25.065C51.8568 23.1194 51.939 22.1069 51.1928 20.5414H35.7756Z" fill="#B83B0E"/>
<path d="M32.7263 29.0632C32.0852 29.0166 31.4598 29.0632 30.2558 29.0632C29.0518 29.0632 29.8493 30.4628 29.8493 30.4628L30.8656 32.2046C31.1158 32.7799 31.8351 32.7333 32.0852 32.2046L33.2579 30.4628C33.5646 29.7901 33.3674 29.1099 32.7263 29.0632Z" fill="#DB6A0D"/>
<path d="M30.819 14.5698H27.3791L23.5482 24.4915V26.5753H29.7088V28.3948H32.7579V26.5753H33.7899V25.8444H31.0223C30.6783 25.8444 30.0372 25.0669 30.0372 24.4915V22.3454C30.0372 21.9411 30.4577 21.6177 31.0223 21.3968H29.4274V24.1027H27.0351V23.6984L30.819 14.5698Z" fill="#D74814"/>
<path d="M24.1111 20.5881H22.5788L21.453 23.1696L12.3997 23.2785L13.6349 23.6984H22.7195L24.1111 20.5881Z" fill="#D74814"/>
<path d="M37.2527 13.7909V12.3838H48.2322V15.1088L46.1158 15.852L48.2322 16.5951V19.3201H38.6297V13.7909H37.2527ZM41.0419 17.9131H45.8201V17.4077L43.9994 16.5555H41.0419V17.9131ZM41.0419 15.1484H43.9994L45.8201 14.2962V13.7909H41.0419V15.1484Z" fill="#591E16"/>
<path d="M49.067 13.7909V12.3838H60.0465V15.1088L57.9301 15.852L60.0465 16.5951V19.3201H50.444V13.7909H49.067ZM52.8562 17.9131H57.6343V17.4077L55.8137 16.5555H52.8562V17.9131ZM52.8562 15.1484H55.8137L57.6343 14.2962V13.7909H52.8562V15.1484Z" fill="#591E16"/>
</svg>
