<svg width="42" height="42" viewBox="0 0 42 42" fill="none" xmlns="http://www.w3.org/2000/svg">
<g style="mix-blend-mode:multiply" opacity="0.6">
<rect x="0.730469" y="8.01953" width="34.0301" height="34.0301" transform="rotate(-13.2821 0.730469 8.01953)" fill="#D74814"/>
</g>
<path d="M13.9551 15.6483V11.5455C13.9551 11.198 13.6733 10.9163 13.3259 10.9163H11.2293C10.8818 10.9163 10.6001 11.198 10.6001 11.5455V15.6483" fill="#ECECEC"/>
<path d="M12.1237 15.6483V10.9163H11.2293C10.8818 10.9163 10.6001 11.198 10.6001 11.5455V15.6483" fill="#D1D1D1"/>
<path d="M37 16.3961V31.7467C37 32.7992 36.1467 33.6524 35.0943 33.6524H10.1911C9.13865 33.6524 8.2854 32.7992 8.2854 31.7467V16.3961C8.2854 15.3437 9.13865 14.4904 10.1911 14.4904H13.9593C14.771 14.4904 15.4941 13.9765 15.7602 13.2094L16.4558 11.2018C16.7218 10.4347 17.4443 9.92017 18.2566 9.92017H29.3731C30.1847 9.92017 30.9072 10.4347 31.1733 11.2018L31.8694 13.2094C32.1355 13.9766 32.858 14.4904 33.6697 14.4904H35.0942C36.1467 14.4904 37 15.3437 37 16.3961Z" fill="#0B7DE3"/>
<path d="M11.6854 33.653H10.1911C9.13865 33.653 8.2854 32.7997 8.2854 31.7473V16.3967C8.2854 15.3442 9.13865 14.491 10.1911 14.491H11.5671V14.4945C10.5697 14.556 9.77974 15.3841 9.77974 16.3967V31.7473C9.77974 32.7998 10.633 33.653 11.6854 33.653Z" fill="black" fill-opacity="0.1"/>
<path d="M19.7508 9.92017C18.9386 9.92017 18.216 10.4347 17.9499 11.2018L17.2543 13.2094C16.9883 13.9766 16.2651 14.4904 15.4535 14.4904H14.1748V14.4782C14.8968 14.3961 15.5179 13.908 15.7599 13.2094L16.4555 11.2018C16.7216 10.4347 17.4441 9.92017 18.2564 9.92017C18.2565 9.92017 19.7508 9.92017 19.7508 9.92017Z" fill="black" fill-opacity="0.1"/>
<path d="M37 19.6768V31.7469C37 32.7993 36.1467 33.6526 35.0943 33.6526H10.1911C9.13865 33.6526 8.2854 32.7993 8.2854 31.7469V19.6768H37Z" fill="#76B5E1"/>
<path d="M11.6854 33.6525H10.1911C9.13865 33.6525 8.2854 32.7993 8.2854 31.7468V19.6768H9.77974V31.7469C9.77974 32.7993 10.633 33.6525 11.6854 33.6525Z" fill="black" fill-opacity="0.1"/>
<path d="M22.643 31.8653C27.0281 31.8653 30.5829 28.3105 30.5829 23.9255C30.5829 19.5404 27.0281 15.9856 22.643 15.9856C18.2579 15.9856 14.7031 19.5404 14.7031 23.9255C14.7031 28.3105 18.2579 31.8653 22.643 31.8653Z" fill="#ECECEC"/>
<path d="M28.2568 23.9253C28.2568 25.5785 27.5425 27.0646 26.405 28.0925C25.4094 28.992 24.0909 29.5399 22.6429 29.5399C21.1954 29.5399 19.8763 28.9919 18.8807 28.0924C17.7433 27.0651 17.0283 25.5784 17.0283 23.9253C17.0283 22.2721 17.7433 20.7854 18.8807 19.7587C19.8763 18.8586 21.1954 18.3113 22.6429 18.3113C24.0909 18.3113 25.4094 18.8592 26.405 19.7587C27.5425 20.7861 28.2568 22.2722 28.2568 23.9253Z" fill="#869CE4"/>
<path d="M26.6118 19.9553C27.7808 21.1243 28.3265 22.6802 28.249 24.2114C26.7179 24.2888 25.1619 23.7431 23.993 22.5742C22.824 21.4052 22.2783 19.8493 22.3562 18.3186C23.8869 18.2407 25.4429 18.7864 26.6118 19.9553Z" fill="#6B81C8"/>
<path d="M21.2913 25.2759C22.4603 26.4449 23.006 28.0008 22.9285 29.532C21.3978 29.6099 19.841 29.0642 18.6721 27.8952C17.5031 26.7262 16.9574 25.1694 17.0357 23.6391C18.5664 23.5612 20.1224 24.1069 21.2913 25.2759Z" fill="#6B81C8"/>
<path d="M22.6426 29.979C19.3046 29.979 16.5889 27.2633 16.5889 23.9253C16.5889 20.5873 19.3046 17.8716 22.6426 17.8716C25.9806 17.8716 28.6963 20.5872 28.6963 23.9253C28.6963 27.2634 25.9806 29.979 22.6426 29.979ZM22.6426 18.7506C19.7893 18.7506 17.4679 21.072 17.4679 23.9253C17.4679 26.7787 19.7893 29.1001 22.6426 29.1001C25.4959 29.1001 27.8173 26.7787 27.8173 23.9253C27.8173 21.072 25.4959 18.7506 22.6426 18.7506Z" fill="#192E72"/>
<path d="M22.6429 21.6716C21.4002 21.6716 20.3892 22.6826 20.3892 23.9254C20.3892 25.1681 21.4002 26.1791 22.6429 26.1791C23.8856 26.1791 24.8966 25.1681 24.8966 23.9254C24.8966 22.6827 23.8856 21.6716 22.6429 21.6716Z" fill="#192E72"/>
<path d="M25.495 14.051H28.9488C29.4029 14.051 29.771 13.683 29.771 13.2289V12.3241C29.771 11.8701 29.4029 11.502 28.9488 11.502H25.495C25.041 11.502 24.6729 11.87 24.6729 12.3241V13.2289C24.6729 13.6829 25.041 14.051 25.495 14.051Z" fill="#ECECEC"/>
<path d="M28.9484 14.4905H25.4946C24.7989 14.4905 24.2329 13.9245 24.2329 13.2288V12.3242C24.2329 11.6285 24.7989 11.0625 25.4946 11.0625H28.9484C29.6441 11.0625 30.2101 11.6285 30.2101 12.3242V13.2289C30.21 13.9246 29.644 14.4905 28.9484 14.4905ZM25.4946 11.9415C25.2836 11.9415 25.112 12.1132 25.112 12.3241V13.2288C25.112 13.4399 25.2836 13.6115 25.4946 13.6115H28.9484C29.1594 13.6115 29.331 13.4398 29.331 13.2288V12.3242C29.331 12.1132 29.1594 11.9415 28.9484 11.9415C28.9484 11.9415 25.4946 11.9415 25.4946 11.9415Z" fill="#E29A4B"/>
<path d="M13.7441 32.0255C14.6218 32.0255 15.3334 31.3139 15.3334 30.4362C15.3334 29.5585 14.6218 28.8469 13.7441 28.8469C12.8663 28.8469 12.1548 29.5585 12.1548 30.4362C12.1548 31.3139 12.8663 32.0255 13.7441 32.0255Z" fill="#869CE4"/>
</svg>
