<svg width="50" height="49" viewBox="0 0 50 49" fill="none" xmlns="http://www.w3.org/2000/svg">
<path d="M24.8606 46.3255C24.4536 46.3255 24.1183 46.0005 24.1064 45.5896C24.0946 45.1715 24.4227 44.8231 24.8392 44.8112C25.2566 44.7921 25.6071 45.1164 25.6254 45.5345C25.6441 45.9522 25.3207 46.306 24.9041 46.3244L24.8823 46.3252C24.8751 46.3255 24.8678 46.3255 24.8606 46.3255V46.3255ZM21.8264 46.2114C21.7966 46.2114 21.7672 46.2099 21.7371 46.2065L21.7352 46.2061C21.3205 46.1644 21.0203 45.7937 21.0619 45.3771C21.1035 44.9609 21.4758 44.6581 21.8901 44.6994L21.9133 44.7017C22.3272 44.7507 22.6233 45.1271 22.5744 45.5425C22.5294 45.9281 22.2036 46.2114 21.8264 46.2114V46.2114ZM27.888 45.9779C27.5347 45.9779 27.2192 45.7279 27.1487 45.3668C27.0678 44.9563 27.3341 44.5581 27.743 44.4774L27.7571 44.4747C28.1664 44.3962 28.5616 44.6657 28.6398 45.0766C28.718 45.487 28.4499 45.8841 28.0405 45.9626L28.0348 45.9637C27.9852 45.9733 27.9364 45.9779 27.888 45.9779V45.9779ZM18.8326 45.6344C18.767 45.6344 18.7002 45.6256 18.6335 45.6076L18.6293 45.6065C18.2268 45.4989 17.9865 45.0842 18.0933 44.6803C18.2001 44.276 18.6129 44.0351 19.0153 44.1419L19.031 44.1462C19.433 44.2564 19.6699 44.6726 19.5601 45.0762C19.4685 45.4131 19.1645 45.6344 18.8326 45.6344ZM30.8283 45.1688C30.5197 45.1688 30.2306 44.9782 30.1188 44.6703C29.9765 44.2771 30.1787 43.8425 30.5701 43.6997L30.5827 43.6955C30.9744 43.5542 31.4066 43.7583 31.5478 44.1519C31.6889 44.5455 31.4848 44.9793 31.0927 45.121L31.0862 45.1233C31.0008 45.1543 30.9138 45.1688 30.8283 45.1688ZM15.9586 44.6014C15.8556 44.6014 15.7511 44.58 15.6507 44.5344L15.6404 44.5298C15.2609 44.3571 15.0926 43.9084 15.2647 43.5274C15.4367 43.1464 15.8834 42.9776 16.2634 43.1503C16.6433 43.3226 16.8161 43.7728 16.6448 44.1542C16.5186 44.4349 16.2454 44.6014 15.9586 44.6014ZM33.6077 43.9172C33.3377 43.9172 33.0771 43.7717 32.9413 43.5163C32.7448 43.1472 32.8841 42.6881 33.2518 42.4913C33.6169 42.2899 34.0758 42.4236 34.2768 42.79C34.4775 43.1564 34.3447 43.617 33.9793 43.8184L33.9621 43.828C33.8488 43.8885 33.7275 43.9172 33.6077 43.9172ZM40.4609 37.147L40.4658 37.1505L40.3861 37.0934L40.4609 37.147ZM5.62948 33.8458C5.33155 33.8458 5.04926 33.6674 4.92986 33.3733L4.92795 33.3679C4.76888 32.9812 4.95237 32.5382 5.33727 32.3789C5.72256 32.2193 6.16392 32.4034 6.32261 32.7898L6.32795 32.8032C6.48512 33.1907 6.29896 33.6325 5.91291 33.7899C5.82022 33.8278 5.7237 33.8458 5.62948 33.8458V33.8458ZM43.0839 32.3923C43.0049 32.3923 42.9244 32.3797 42.8451 32.3533C42.4525 32.222 42.2389 31.7977 42.3652 31.403C42.4884 31.0052 42.9088 30.7804 43.3059 30.9014C43.7045 31.0231 43.9296 31.4447 43.809 31.8444L43.7995 31.8743C43.6942 32.1917 43.3997 32.3923 43.0839 32.3923ZM4.7067 30.9301C4.36528 30.9301 4.05591 30.6962 3.97313 30.3485L3.97084 30.3385C3.87433 29.9315 4.12419 29.523 4.5297 29.4257C4.9352 29.3285 5.34223 29.5797 5.43875 29.9867L5.44103 29.9966C5.53793 30.4033 5.28768 30.8118 4.88256 30.909C4.82343 30.9232 4.76469 30.9301 4.7067 30.9301ZM43.7778 29.4135C43.7343 29.4135 43.6904 29.4097 43.6458 29.4016C43.2384 29.3296 42.9652 28.9414 43.0324 28.5329C43.0957 28.1213 43.4783 27.8372 43.8888 27.8977C44.3008 27.9589 44.5857 28.3422 44.5251 28.7561L44.5201 28.7875C44.4556 29.1547 44.1371 29.4135 43.7778 29.4135V29.4135ZM4.24093 27.9053C3.85373 27.9053 3.52452 27.609 3.49019 27.215L3.4879 27.1836C3.46349 26.7658 3.78087 26.4078 4.19706 26.383C4.60943 26.3577 4.96534 26.6728 4.99395 27.0863C5.02714 27.5014 4.72043 27.867 4.30654 27.9026C4.28441 27.9045 4.26267 27.9053 4.24093 27.9053V27.9053ZM44.0089 26.363C43.592 26.363 43.2544 26.0242 43.2544 25.6057V25.5957C43.2544 25.5904 43.2544 25.585 43.2544 25.58C43.2544 25.5735 43.2544 25.5666 43.2544 25.5601V25.5502C43.2544 25.1317 43.592 24.7925 44.0089 24.7925C44.4255 24.7925 44.7635 25.1317 44.7635 25.5502V25.5601C44.7635 25.5655 44.7635 25.5709 44.7631 25.5758C44.7635 25.5823 44.7635 25.5889 44.7635 25.5957V25.6057C44.7635 26.0242 44.4259 26.363 44.0089 26.363ZM4.23902 24.8476C4.21727 24.8476 4.19515 24.8464 4.17302 24.8445C3.75836 24.8085 3.45128 24.4425 3.48637 24.0267C3.51537 23.6132 3.86785 23.298 4.28327 23.3241C4.69945 23.3486 5.01684 23.707 4.99242 24.1243L4.98975 24.1557C4.9558 24.5501 4.62621 24.8476 4.23902 24.8476ZM43.772 23.2678C43.4127 23.2678 43.0945 23.0094 43.0301 22.6418L43.0247 22.6104C42.9645 22.1965 43.2494 21.8117 43.6618 21.7508C44.0719 21.6899 44.456 21.9752 44.5174 22.3879C44.5842 22.7961 44.3114 23.1836 43.904 23.2559C43.8598 23.264 43.8155 23.2678 43.772 23.2678ZM43.8987 22.4814L43.7713 22.5001L43.8987 22.4814ZM4.69678 21.8236C4.6388 21.8236 4.57967 21.8167 4.52093 21.8025C4.11618 21.7056 3.86594 21.2979 3.96169 20.8916C4.05095 20.4877 4.44806 20.2296 4.85281 20.3146C5.2606 20.4004 5.52229 20.8016 5.43684 21.2109L5.42997 21.242C5.34757 21.5896 5.0382 21.8236 4.69678 21.8236ZM43.0797 20.2935C42.7623 20.2935 42.4659 20.0899 42.3602 19.7717L42.3518 19.7453C42.229 19.3455 42.4525 18.9217 42.8512 18.7988C43.2498 18.6755 43.6713 18.8998 43.7942 19.3L43.7945 19.3011C43.9262 19.6982 43.7114 20.1228 43.3158 20.2549C43.238 20.2813 43.1583 20.2935 43.0797 20.2935V20.2935ZM5.61155 18.9033C5.51695 18.9033 5.42082 18.8853 5.32774 18.8474C4.94169 18.69 4.75591 18.2482 4.9127 17.8607L4.91651 17.8515C5.0733 17.464 5.51313 17.2772 5.89956 17.4345C6.28561 17.5919 6.47139 18.0338 6.3146 18.4212L6.31079 18.4308C6.19177 18.7249 5.90948 18.9033 5.61155 18.9033ZM41.9353 17.4567C41.6606 17.4567 41.3951 17.3055 41.2608 17.0444L41.2494 17.0222C41.0655 16.6466 41.2196 16.1928 41.5938 16.0083C41.9677 15.8237 42.4197 15.9784 42.604 16.3537L42.6044 16.3552C42.7959 16.7266 42.649 17.1807 42.2786 17.3725C42.1687 17.4296 42.0512 17.4567 41.9353 17.4567ZM6.96272 16.1595C6.82883 16.1595 6.69302 16.1239 6.57057 16.0485C6.21542 15.8314 6.10289 15.367 6.31766 15.0105C6.52556 14.654 6.98142 14.53 7.34076 14.7344C7.70316 14.9408 7.83057 15.403 7.62534 15.7667C7.61962 15.7766 7.61351 15.7866 7.60741 15.7966C7.4655 16.0305 7.21716 16.1595 6.96272 16.1595ZM40.3686 14.8294C40.1271 14.8294 39.8894 14.713 39.7437 14.4974C39.5015 14.157 39.582 13.6872 39.9215 13.4441C40.2602 13.201 40.734 13.2833 40.9762 13.6237L40.9923 13.6467C41.2261 13.9928 41.1365 14.4637 40.7916 14.6988C40.6619 14.7873 40.5147 14.8294 40.3686 14.8294ZM8.71597 13.6558C8.54583 13.6558 8.37531 13.5984 8.23417 13.4813C7.91373 13.214 7.86948 12.7365 8.13575 12.4145L8.14223 12.4069C8.4085 12.0849 8.88381 12.0408 9.20463 12.3077C9.52545 12.575 9.5697 13.0524 9.30343 13.3744L9.29695 13.3821C9.14779 13.5628 8.93264 13.6558 8.71597 13.6558ZM38.4246 12.4731C38.2262 12.4731 38.0282 12.3954 37.8802 12.2403C37.5884 11.9417 37.5926 11.4611 37.8905 11.1682C38.1877 10.8757 38.6649 10.8799 38.9563 11.1786L38.9689 11.1912C39.2577 11.4929 39.2478 11.9727 38.9472 12.2621C38.8007 12.4034 38.6126 12.4731 38.4246 12.4731ZM10.8278 11.4489C10.6187 11.4489 10.4112 11.3627 10.2621 11.1935C9.98588 10.8803 10.0153 10.4017 10.3273 10.1245L10.3304 10.1218C10.6405 9.84346 11.1177 9.86873 11.3958 10.18C11.6735 10.4909 11.6491 10.9684 11.3397 11.2479L11.3275 11.259C11.1837 11.3865 11.0052 11.4489 10.8278 11.4489ZM36.146 10.44C35.9912 10.44 35.8355 10.3925 35.7009 10.2937L35.6753 10.2742C35.3465 10.0173 35.287 9.54174 35.5429 9.21131C35.7985 8.88165 36.2712 8.82192 36.6 9.0773C36.9296 9.3258 36.9998 9.79521 36.7556 10.1299C36.6076 10.3328 36.3784 10.44 36.146 10.44ZM36.2139 9.57927L36.1384 9.67652L36.2139 9.57927ZM13.2478 9.5896C12.9987 9.5896 12.755 9.46593 12.6112 9.23965C12.3872 8.88739 12.4899 8.42027 12.8397 8.19475C13.1838 7.96655 13.648 8.05806 13.8799 8.40151C14.1142 8.74764 14.0241 9.21859 13.6793 9.4533L13.653 9.47091C13.5275 9.55131 13.3871 9.5896 13.2478 9.5896ZM33.5845 8.7775C33.4654 8.7775 33.3445 8.74917 33.232 8.68906L33.2141 8.6791C32.849 8.4777 32.7159 8.01709 32.9165 7.65067C33.1172 7.28425 33.5761 7.15062 33.9411 7.35202L33.9434 7.35317C34.3077 7.55265 34.4454 8.01173 34.2486 8.37854C34.112 8.63277 33.8526 8.7775 33.5845 8.7775ZM15.9216 8.12239C15.6339 8.12239 15.3589 7.9566 15.233 7.67671C15.0614 7.29574 15.23 6.84738 15.6095 6.67508L15.6271 6.66742C16.0086 6.49934 16.4533 6.67431 16.6208 7.05758C16.7875 7.44085 16.6136 7.88729 16.2317 8.055C16.131 8.10056 16.0253 8.12239 15.9216 8.12239Z" fill="#76B5E1"/>
<path d="M29.9338 40.298L18.5732 28.8953C17.861 28.1808 17.8602 27.0245 18.5713 26.3112C18.8521 26.0294 19.203 25.8586 19.5677 25.8008C20.1243 25.7108 20.7152 25.8812 21.1458 26.3135L18.2203 23.3771C17.8648 23.0203 17.6863 22.5524 17.6863 22.0857C17.6863 21.9884 17.6939 21.8908 17.7095 21.7935C17.7679 21.4267 17.9373 21.0752 18.2184 20.7931C18.4965 20.5139 18.8414 20.3447 19.2015 20.2846C19.6917 20.2026 20.2082 20.3225 20.6198 20.6445L19.5067 19.5272C19.1507 19.17 18.9722 18.701 18.9722 18.2338C18.9715 18.1347 18.9802 18.0347 18.9966 17.9371C19.055 17.5726 19.224 17.223 19.5036 16.9424C19.7848 16.6602 20.1353 16.4894 20.5019 16.4316C21.0581 16.3416 21.6494 16.5124 22.0797 16.9443L23.3546 18.2239C22.925 17.7928 22.7541 17.1985 22.8438 16.6403C22.9014 16.2739 23.0707 15.9224 23.3527 15.6398C24.0626 14.9272 25.2158 14.928 25.9272 15.6421L33.3102 23.0525L33.3308 23.023C33.705 22.6474 34.146 22.3805 34.6164 22.2212C35.7772 21.8284 37.1135 22.0968 38.0397 23.0268L41.4821 26.482C42.1439 27.1459 42.5151 28.0457 42.5166 28.9837L42.5185 31.1455C42.5193 32.1556 42.9198 33.1246 43.6328 33.8403L44.4003 34.6106L35.62 43.4235L34.6389 42.4387C33.9866 41.784 33.1187 41.3896 32.199 41.3291C31.3445 41.2728 30.54 40.9064 29.9338 40.298Z" fill="#FECBAA"/>
<path d="M35.0491 43.9956L45.0155 33.9924C45.3439 33.6627 45.8761 33.6627 46.2045 33.9924L49.7537 37.5547C50.0822 37.8844 50.0822 38.4189 49.7537 38.7482L39.7878 48.7515C39.4593 49.0811 38.9268 49.0811 38.5987 48.7515L35.0491 45.1891C34.7211 44.8594 34.7211 44.3249 35.0491 43.9956V43.9956Z" fill="#D74814"/>
<path d="M45.2804 38.4827C45.575 38.7787 46.0519 38.779 46.3458 38.4838C46.6396 38.1886 46.6393 37.7093 46.345 37.4137C46.0503 37.1177 45.5735 37.1173 45.2796 37.4125C44.9857 37.7081 44.9861 38.1871 45.2804 38.4827V38.4827Z" fill="#F49C7C"/>
<path d="M35.8521 25.6036L33.3099 23.0524L33.3305 23.023C33.7048 22.6473 34.1457 22.3805 34.6161 22.2212L36.919 24.5327C37.2135 24.8283 37.2135 25.308 36.919 25.6036C36.6238 25.9 36.1466 25.8992 35.8521 25.6036Z" fill="#FFAE85"/>
<path d="M20.0668 40.2989L31.4274 28.8962C32.1396 28.1813 32.1403 27.0254 31.4296 26.3121C31.1485 26.0299 30.7979 25.8591 30.4329 25.8013C29.8763 25.7113 29.2854 25.8821 28.8547 26.314L31.7802 23.378C32.1357 23.0212 32.3143 22.5533 32.3143 22.0862C32.3143 21.9893 32.3066 21.8913 32.291 21.7944C32.2326 21.4272 32.0633 21.0761 31.7821 20.7939C31.504 20.5148 31.1592 20.3456 30.7991 20.2855C30.3089 20.2035 29.7924 20.3234 29.3808 20.6454L30.4939 19.5277C30.8498 19.1709 31.0283 18.7018 31.0283 18.2347C31.0291 18.1352 31.0203 18.0352 31.0039 17.9376C30.9459 17.5735 30.7766 17.2235 30.4969 16.9429C30.2158 16.6611 29.8652 16.4903 29.4986 16.4325C28.9425 16.3425 28.3512 16.5129 27.9209 16.9452L26.646 18.2248C27.0755 17.7932 27.2464 17.1994 27.1568 16.6408C27.0992 16.2747 26.9298 15.9232 26.6479 15.6403C25.938 14.9277 24.7848 14.9285 24.0734 15.6426L16.6904 23.0529L16.6698 23.0238C16.2955 22.6482 15.8546 22.3814 15.3842 22.2221C14.223 21.8292 12.8871 22.0976 11.9609 23.0273L8.51848 26.4828C7.85662 27.1468 7.48545 28.0465 7.48393 28.9846L7.48164 31.146C7.48126 32.1564 7.08071 33.1255 6.36774 33.8411L5.60022 34.6115L14.3805 43.4244L15.3617 42.4396C16.014 41.7848 16.8819 41.3905 17.8016 41.33C18.6561 41.2737 19.4606 40.9073 20.0668 40.2989V40.2989Z" fill="#FECBAA"/>
<path d="M14.951 43.9967L4.98471 33.9938C4.65627 33.6642 4.12411 33.6642 3.79567 33.9938L0.246457 37.5562C-0.0819897 37.8859 -0.0819897 38.42 0.246457 38.7497L10.2124 48.7529C10.5408 49.0826 11.0734 49.0826 11.4018 48.7529L14.951 45.1905C15.2795 44.8609 15.2795 44.3264 14.951 43.9967Z" fill="#0B7DE3"/>
<path d="M11.5486 45.338C11.8432 45.042 11.8436 44.563 11.5497 44.2678C11.2558 43.9723 10.7786 43.9726 10.4843 44.2686C10.1897 44.5642 10.1893 45.0436 10.4832 45.3388C10.7775 45.634 11.2543 45.6336 11.5486 45.338V45.338Z" fill="#63ADEF"/>
<path d="M14.1483 25.6046L16.6901 23.053L16.6695 23.0239C16.2953 22.6483 15.8543 22.3814 15.3839 22.2222L13.081 24.5333C12.7865 24.8289 12.7865 25.309 13.081 25.6046C13.3762 25.9009 13.8535 25.9002 14.1483 25.6046Z" fill="#FFAE85"/>
<path d="M32.266 12.9712V29.0972C32.266 30.108 31.4523 30.9259 30.4471 30.9259C30.0496 30.9259 29.6815 30.7976 29.3824 30.5793C28.9258 30.2482 28.6279 29.7079 28.6279 29.0972V33.2496C28.6279 33.7542 28.4246 34.2118 28.0957 34.5418C28.0274 34.6107 27.9527 34.6743 27.8733 34.7317C27.5735 34.95 27.2065 35.0783 26.809 35.0783C26.4157 35.0783 26.0522 34.953 25.7554 34.7402C25.351 34.4503 25.0703 33.9989 25.0062 33.4786V35.0591C25.0062 35.5641 24.8017 36.0224 24.4729 36.3525C24.4035 36.4233 24.3268 36.488 24.2467 36.5455C23.9488 36.7618 23.5825 36.8889 23.187 36.8889C22.7898 36.8889 22.4213 36.7607 22.1215 36.5416C21.6649 36.2104 21.367 35.6702 21.367 35.0591V33.2496C21.367 33.8595 21.0694 34.4005 20.6124 34.7317C20.3137 34.95 19.9464 35.0783 19.5481 35.0783C18.5437 35.0783 17.7289 34.2593 17.7289 33.2496V22.7696L17.6938 22.7758C17.1647 22.7758 16.6646 22.6513 16.2198 22.4304C15.1223 21.884 14.3666 20.7461 14.3666 19.4313V14.5445C14.3666 13.6057 14.7377 12.7059 15.3977 12.0412L16.919 10.5116C17.6304 9.79633 18.0298 8.82724 18.0298 7.81528V6.72559H30.4467V8.11814C30.4467 9.04396 30.7828 9.93876 31.3905 10.6345C31.9551 11.2808 32.266 12.1109 32.266 12.9712V12.9712Z" fill="#FEDFC5"/>
<path d="M32.266 12.9712V29.0972C32.266 30.108 31.4523 30.9259 30.4471 30.9259C30.42 30.9259 30.3907 30.9259 30.3617 30.9239C29.9981 30.9067 29.6613 30.7827 29.3847 30.5805C29.3836 30.5805 29.3836 30.5793 29.3824 30.5793C28.9258 30.2482 28.6279 29.7079 28.6279 29.0972V33.2496C28.6279 33.7542 28.4246 34.2118 28.0957 34.5418C28.0274 34.6107 27.9527 34.6743 27.8733 34.7317C27.5735 34.95 27.2065 35.0783 26.809 35.0783C26.4157 35.0783 26.0522 34.953 25.7554 34.7402C25.351 34.4503 25.0703 33.9989 25.0062 33.4786V35.0591C25.0062 35.5641 24.8017 36.0224 24.4729 36.3525C24.4035 36.4233 24.3268 36.488 24.2467 36.5455C23.9488 36.7618 23.5825 36.8889 23.187 36.8889C22.7898 36.8889 22.4213 36.7607 22.1215 36.5416C21.6649 36.2104 21.367 35.6702 21.367 35.0591V33.2496C21.367 33.8595 21.0694 34.4005 20.6124 34.7317C20.3137 34.95 19.9464 35.0783 19.5481 35.0783C18.5437 35.0783 17.7289 34.2593 17.7289 33.2496V22.7696L17.6938 22.7758C17.1647 22.7758 16.6646 22.6513 16.2198 22.4304C15.1223 21.884 14.3666 20.7461 14.3666 19.4313V14.5445C14.3666 13.6057 14.7377 12.7059 15.3977 12.0412L16.919 10.5116C17.3588 10.0693 17.6797 9.52984 17.8597 8.94211C17.9726 8.57875 18.0298 8.19587 18.0298 7.81528V6.72559H30.4467V8.11814C30.4467 8.43019 30.4803 8.75947 30.5665 9.06004C30.7115 9.63896 30.9934 10.1792 31.3905 10.6345C31.9501 11.2758 32.266 12.117 32.266 12.9712V12.9712Z" fill="#FEDFC5"/>
<path d="M31.254 6.72615H17.1594C16.6951 6.72615 16.3186 6.34824 16.3186 5.88227V0.843879C16.3186 0.377908 16.6951 0 17.1594 0H31.254C31.7182 0 32.0947 0.377908 32.0947 0.843879V5.88227C32.0947 6.34824 31.7182 6.72615 31.254 6.72615Z" fill="#192E72"/>
<path d="M20.3007 3.36379C20.3007 2.9453 19.9637 2.60645 19.5479 2.60645C19.132 2.60645 18.795 2.9453 18.795 3.36379C18.795 3.7819 19.132 4.12114 19.5479 4.12114C19.9637 4.12114 20.3007 3.7819 20.3007 3.36379Z" fill="#5971C0"/>
<path d="M29.3815 20.6587V30.58C28.9248 30.2488 28.6271 29.7086 28.6271 29.0975V33.2499C28.6271 33.7549 28.4243 34.2125 28.0954 34.5425C28.0272 34.6114 27.9528 34.675 27.8732 34.7324V20.6587C27.8732 20.2406 28.2113 19.9014 28.6271 19.9014C29.0434 19.9014 29.3815 20.2406 29.3815 20.6587V20.6587Z" fill="#FECBAA"/>
<path d="M25.7546 20.6587V34.7405C25.3502 34.4506 25.07 33.9992 25.0056 33.4793V35.0598C25.0056 35.5644 24.8017 36.0231 24.4727 36.3532C24.4034 36.424 24.3271 36.4883 24.2467 36.5462V20.6587C24.2467 20.2406 24.5844 19.9014 25.0007 19.9014C25.4169 19.9014 25.7546 20.2406 25.7546 20.6587V20.6587Z" fill="#FECBAA"/>
<path d="M22.1205 20.6587V36.542C21.6642 36.2108 21.3665 35.6705 21.3665 35.0598V33.2499C21.3665 33.8598 21.0692 34.4012 20.6125 34.7324V20.6587C20.6125 20.2406 20.9506 19.9014 21.3665 19.9014C21.7839 19.9014 22.1205 20.2406 22.1205 20.6587V20.6587Z" fill="#FECBAA"/>
<path d="M17.7282 19.1616V22.77L17.6928 22.7757C17.1641 22.7757 16.6644 22.6516 16.2203 22.4307V19.1616C16.2203 18.7435 16.5581 18.4043 16.9743 18.4043C17.3913 18.4043 17.7282 18.7435 17.7282 19.1616Z" fill="#FECBAA"/>
</svg>
