<svg width="51" height="50" viewBox="0 0 51 50" fill="none" xmlns="http://www.w3.org/2000/svg">
<g style="mix-blend-mode:multiply" opacity="0.6">
<rect x="23.5537" y="0.371338" width="34.8961" height="34.8961" transform="rotate(40.4761 23.5537 0.371338)" fill="#D74814"/>
</g>
<path d="M42.3455 21.2363L30.9829 23.2828C30.2978 23.4062 29.697 23.8787 29.4281 24.5274L27.1214 29.8081C27.0798 29.8156 26.9686 29.7928 26.795 29.7812C25.8783 29.6891 23.3408 29.5245 21.0169 31.6149C18.5038 33.8465 18.6353 36.4805 18.5631 36.7936L12.8897 39.4871L12.8652 39.4701L9.16901 27.0402C9.00958 26.5117 8.89159 25.9756 8.79067 25.4152C7.32125 17.2566 12.8122 9.26617 20.9708 7.79675L24.583 7.14617C28.8595 6.37594 33.3096 7.48199 36.7125 10.1913C40.0419 12.8493 42.0885 16.9531 42.3455 21.2363Z" fill="#0B7DE3"/>
<path d="M31.9375 16.6811C32.5108 16.5778 32.8919 16.0294 32.7886 15.4561C32.6853 14.8828 32.1369 14.5018 31.5636 14.605C30.9904 14.7083 30.6093 15.2567 30.7126 15.83C30.8158 16.4033 31.3643 16.7843 31.9375 16.6811Z" fill="#2B292C"/>
<path d="M29.1812 31.3662L28.891 35.7051C28.8732 36.2012 28.4933 36.5912 28.0367 36.6734C27.9537 36.6884 27.8705 36.7033 27.7801 36.6767C27.1971 36.6531 26.764 36.1523 26.8085 35.5658L27.087 31.4004L27.0987 31.2269C27.1223 30.6438 27.6192 30.1901 28.2096 30.2552C28.7926 30.2787 29.2256 30.7795 29.1812 31.3662Z" fill="#3C3A41"/>
<path d="M26.3852 38.1556C26.1926 38.1903 25.9873 38.1718 25.7927 38.0907L21.8275 36.4355C21.29 36.2111 21.0363 35.5932 21.2609 35.0557C21.4857 34.5201 22.1032 34.2645 22.6407 34.489L26.6059 36.1442C27.1434 36.3687 27.397 36.9865 27.1725 37.5241C27.0291 37.867 26.7257 38.0943 26.3852 38.1556Z" fill="#3C3A41"/>
<path d="M31.3671 42.0744L29.0502 39.9193C28.6231 39.5232 28.5991 38.8556 28.9964 38.4293C29.3923 38.0011 30.0599 37.9772 30.4864 38.3755L32.8034 40.5306C33.2305 40.9267 33.2545 41.5943 32.8571 42.0206C32.4597 42.448 31.7924 42.4713 31.3671 42.0744Z" fill="#3C3A41"/>
<path d="M44.5458 20.84C44.7515 21.9819 43.9855 23.0842 42.8438 23.2899L32.4777 25.1569L29.8813 31.0899C29.2789 32.5058 28.0677 32.4453 27.2361 32.2308C26.791 32.1394 26.4667 32.0051 26.4007 31.9955C25.3389 31.6938 24.25 31.9542 23.4582 32.6755C22.625 33.4042 22.278 34.4526 22.4724 35.5322C22.6332 36.4248 22.2146 37.3147 21.4159 37.7586L14.4547 41.1557C13.4387 41.703 12.1544 41.3556 11.5826 40.3227C11.007 39.2689 11.4204 37.9942 12.4156 37.4506L18.189 34.7177C18.2613 34.4046 18.1297 31.7706 20.6428 29.539C22.9668 27.4486 25.5042 27.6131 26.421 27.7053C26.5946 27.7169 26.7057 27.7396 26.7473 27.7322L29.054 22.4514C29.323 21.8028 29.9238 21.3303 30.6089 21.2069L42.0959 19.138C43.2378 18.9324 44.3402 19.6984 44.5458 20.84Z" fill="#57555C"/>
<path d="M44.5458 20.8401C44.7515 21.9819 43.9855 23.0843 42.8438 23.2899L32.4777 25.1569L29.8813 31.09C29.2789 32.5059 28.0677 32.4453 27.2361 32.2308L26.421 27.7052C26.5947 27.7169 26.7058 27.7396 26.7474 27.7321L29.054 22.4514C29.323 21.8027 29.9238 21.3302 30.6089 21.2069L42.096 19.138C43.2377 18.9324 44.3402 19.6984 44.5458 20.8401Z" fill="#57555C"/>
<path d="M27.6623 34.5974C25.9392 34.9077 24.7988 36.549 25.1092 38.2722C25.4195 39.9951 27.0609 41.1356 28.784 40.8253C30.5071 40.5149 31.6474 38.8734 31.3371 37.1505C31.0268 35.4274 29.3854 34.287 27.6623 34.5974Z" fill="#57555C"/>
<path d="M31.3371 37.1505C31.6475 38.8735 30.5072 40.515 28.784 40.8253L27.6624 34.5974C29.3855 34.2871 31.0268 35.4275 31.3371 37.1505Z" fill="#57555C"/>
</svg>
