<svg width="34" height="49" viewBox="0 0 34 49" fill="none" xmlns="http://www.w3.org/2000/svg">
<path d="M26.9948 37.174V47.8967C26.9948 48.5057 26.4969 48.9998 25.8821 48.9998H1.11272C0.497919 48.9998 0 48.5057 0 47.8967V37.174C0 33.6692 2.86515 30.8284 6.39995 30.8284H20.5949C24.1297 30.8284 26.9948 33.6692 26.9948 37.174V37.174Z" fill="#D74814"/>
<path d="M13.651 34.4011C12.4458 34.4011 11.469 33.4327 11.469 32.2384V26.1709H15.8325V32.2384C15.8325 33.4327 14.8557 34.4011 13.651 34.4011Z" fill="#F8C298"/>
<path d="M2.10852 17.71H25.1926L25.8015 14.7662C27.3783 7.1409 21.5021 0 13.651 0C5.79903 0 -0.0768371 7.1409 1.50005 14.7662L2.10852 17.71Z" fill="#8F3919"/>
<path d="M26.4805 18.8624C26.4805 20.4709 25.1652 21.7744 23.5428 21.7744C21.9207 21.7744 20.6055 20.4709 20.6055 18.8624C20.6055 17.2544 21.9207 15.9504 23.5428 15.9504C25.1652 15.9504 26.4805 17.2544 26.4805 18.8624Z" fill="#F8C298"/>
<path d="M6.69577 18.8624C6.69577 20.4709 5.38093 21.7744 3.75847 21.7744C2.13643 21.7744 0.821167 20.4709 0.821167 18.8624C0.821167 17.2544 2.13643 15.9504 3.75847 15.9504C5.38093 15.9504 6.69577 17.2544 6.69577 18.8624Z" fill="#F8C298"/>
<path d="M4.88799 14.5413L5.79479 21.7399C6.28976 25.6681 9.65788 28.616 13.6505 28.616C17.6436 28.616 21.0113 25.6681 21.5063 21.7399L22.4131 14.5413C22.6844 12.3894 20.9919 10.4885 18.8044 10.4885H8.49706C6.30959 10.4885 4.61666 12.3894 4.88799 14.5413V14.5413Z" fill="#F8C298"/>
<path d="M6.04796 42.4564V49H4.37866V42.4564C4.37866 42 4.75252 41.6294 5.21331 41.6294C5.6741 41.6294 6.04796 42 6.04796 42.4564Z" fill="#A84522"/>
<path d="M22.6161 42.4564V49H20.9468V42.4564C20.9468 42 21.3206 41.6294 21.7814 41.6294C22.2422 41.6294 22.6161 42 22.6161 42.4564Z" fill="#A84522"/>
<path d="M3.56474 8.88867V12.7871C3.56474 13.164 3.45417 13.4966 3.83478 13.4937C5.62602 13.4782 3.89092 13.1406 7.15144 10.7013C10.4124 13.1406 21.2198 13.4501 23.011 13.4656C23.3916 13.4686 23.7009 13.164 23.7009 12.7871V8.88867H3.56474Z" fill="#8F3919"/>
<path d="M13.6068 24.7217C12.3076 24.7217 11.0763 24.0976 10.3129 23.0526C10.0425 22.6823 10.126 22.1653 10.4994 21.8971C10.8729 21.6294 11.3949 21.7118 11.6649 22.082C12.1151 22.6987 12.8414 23.0668 13.6068 23.0668C14.3722 23.0668 15.098 22.6987 15.5483 22.082C15.8183 21.7118 16.3403 21.629 16.7137 21.8971C17.0872 22.1653 17.1703 22.6823 16.9002 23.0526C16.1369 24.0976 14.9056 24.7217 13.6068 24.7217Z" fill="#E7A676"/>
<path d="M21.1347 41.8979H20.632C20.632 41.8979 20.3614 42.1218 20.4049 42.5123C20.4484 42.9028 21.0718 43.2315 21.0718 43.2315C21.0718 43.2315 20.8108 42.779 20.7722 42.5123C20.7335 42.2456 21.1347 41.8979 21.1347 41.8979Z" fill="#76B5E1"/>
<path d="M19.2109 42.8124C19.2109 42.8124 19.3221 42.5743 19.5202 42.8124C19.7184 43.0505 19.8537 43.3124 21.1006 43.3124C22.3475 43.3124 22.391 42.9029 22.391 42.9029L22.5409 43.1981L22.1397 43.5696H20.1389L19.2109 43.0505V42.8124Z" fill="#76B5E1"/>
<path d="M14.9774 37.497H15.8908H17.2344L17.9255 36.5064H14.9774L15.2239 35.5682C14.7359 35.3809 14.1751 35.8063 14.1751 36.6731H13.6V37.2779H13.9141C13.928 37.9729 14.0803 38.2406 14.7937 38.3447L14.9774 37.497Z" fill="#C4C4C4"/>
<path fill-rule="evenodd" clip-rule="evenodd" d="M14.8709 40.064H17.3019L21.4921 41.2594L21.8256 41.9737C21.8256 41.9737 20.1545 41.7926 19.8434 42.0786C19.5323 42.3647 19.5251 42.8167 19.5251 42.8167H19.2496V43.031L19.4139 43.1263C19.4139 43.1263 18.8726 43.3787 18.8533 43.6549C18.8474 43.739 18.8442 43.8412 18.8408 43.949C18.8331 44.1953 18.8245 44.4708 18.7808 44.6265C18.718 44.8503 18.0027 45.8266 18.0027 45.8266C17.8145 46.2522 17.8228 46.5059 18.0027 46.9792C18.0027 46.9792 18.1912 47.7745 17.4566 47.7745C16.969 47.7745 16.6964 47.4241 16.5131 47.1884C16.4203 47.0691 16.3504 46.9792 16.287 46.9792C16.2387 46.9792 16.1439 46.9838 16.0271 46.9896L16.0271 46.9896C15.6876 47.0064 15.1624 47.0323 15.0546 46.9792C14.9096 46.9077 14.6328 46.5924 14.4311 46.2076C14.3738 46.0983 14.4171 45.9964 14.4586 45.8986C14.4912 45.8218 14.5228 45.7476 14.5036 45.6742C14.4836 45.5973 14.4158 45.5004 14.3478 45.4032C14.2684 45.2897 14.1888 45.1759 14.1846 45.0932C14.1777 44.9563 14.2531 44.8694 14.3239 44.7878C14.369 44.7358 14.4123 44.6858 14.4311 44.6265C14.4795 44.4741 14.6688 43.8834 15.0546 43.3787C15.2921 43.068 15.6177 42.8102 15.8462 42.6293C15.9657 42.5346 16.0587 42.461 16.0985 42.4119C16.7703 41.5832 16.403 40.645 15.7699 40.645C15.0933 40.645 14.8982 40.5595 14.8709 40.064ZM15.9245 45.8266H14.9918V46.0552L15.3011 46.541H16.2435V46.2172L15.9245 45.8266Z" fill="#76B5E1"/>
<path d="M15.9487 45.7743L15.4751 45.5933C16.6769 42.995 17.4732 42.5567 19.037 42.9692C19.2207 43.0176 19.095 43.3241 18.7857 43.2311C17.7651 42.9242 17.1512 43.3724 15.9487 45.7743Z" fill="#0B7DE3"/>
<path d="M16.9492 37.7306H15.8424C15.5732 37.7272 15.567 37.7956 15.7588 38.0163L15.5621 38.6879H16.4949L16.9492 37.7306Z" fill="#C4C4C4"/>
<path fill-rule="evenodd" clip-rule="evenodd" d="M31.6558 35.9495H32.2358L32.4194 36.4686L32.3953 37.0401H24.7108V39.4023L23.4736 39.4261L23.2561 39.6309L23.1981 40.1834L23.4736 40.3834H24.3725H32.7481L32.7142 40.8787L32.0763 41.2406H25.4793L24.793 42.0693L24.6383 42.1693L24.4837 42.3456C24.4837 42.3456 23.9327 43.0838 23.8216 43.1838C23.7104 43.2837 22.623 43.2837 22.5312 43.1838C22.4393 43.0838 21.3471 41.2788 21.3471 41.2788L17.2584 40.0786H14.8467V40.1453C14.8467 40.1453 14.7114 40.1643 14.6679 40.1453C14.6244 40.1262 14.6147 40.0358 14.6147 39.9691C14.6147 39.9023 14.8806 39.069 14.9144 38.9499C14.9482 38.8308 15.0062 38.726 15.1125 38.726C15.2189 38.726 15.4702 38.726 15.4702 38.726H16.4996L16.9926 37.7211H15.8085L15.7505 37.5259L16.113 36.9782H17.4469C17.4469 36.9782 17.9882 36.0781 18.167 36.0781C18.3458 36.0781 18.5536 36.0781 18.5536 36.0781C18.5536 36.0781 18.6358 35.7494 18.8436 35.7494C19.0514 35.7494 24.4982 35.6732 24.5755 35.7494C24.6528 35.8256 24.7108 35.9495 24.7108 35.9495H31.6558ZM24.532 35.9495H24.445H19.9262V36.0162H19.873V36.0686H19.9262H24.5948V36.0019H24.532V35.9495ZM19.7425 36.0162H19.1239V36.0686H19.7425V36.0162Z" fill="#FFFFFD"/>
<path d="M16.7512 38.1831H16.2872L16.0697 38.6975H16.5047L16.7512 38.1831Z" fill="#DB6A0D"/>
<path d="M32.497 37.4545C32.497 37.4545 32.5018 36.4877 32.497 36.1591C32.4921 35.8304 31.8707 35.9294 31.6415 35.9543C31.9804 36.04 32.3327 36.1448 32.3327 36.4401V36.9592H31.8784H24.6579V39.4071C24.6579 39.4071 23.556 39.3309 23.3772 39.4071C23.1983 39.4833 23.0388 39.5071 23.0485 39.9024C23.0582 40.2977 23.0727 40.3739 23.2708 40.4549C23.469 40.5359 32.584 40.3787 32.584 40.4549V40.7168C32.584 40.8359 32.0765 41.1693 32.0765 41.1693H25.2958L24.6047 42.1789C24.6047 42.1789 25.2813 42.1742 25.5037 42.1789C25.726 42.1837 25.9 42.5837 25.9 42.5837H27.8235C27.8235 42.5837 27.9491 43.1314 28.2005 43.0886C28.4518 43.0457 29.0511 42.9409 29.1961 42.9266C29.341 42.9124 29.3555 42.5599 29.4232 42.5599H30.2303V42.2456C30.2303 42.1123 30.53 41.5265 30.53 41.5265H32.8111C33.0056 41.4004 33.1051 41.3239 33.1446 41.1026H33.4926C33.7101 41.1026 34 40.5073 34 40.2834V39.531C34 39.3786 33.7101 38.8118 33.4249 38.8118H32.9561C32.9512 38.6816 32.9513 38.6089 33.0576 38.4927V37.8593C32.8834 37.6466 32.7643 37.5536 32.497 37.4545Z" fill="#B83B0E"/>
<path fill-rule="evenodd" clip-rule="evenodd" d="M24.6579 39.0595V39.4071C24.6579 39.4071 23.556 39.3309 23.3772 39.4071C23.3607 39.4141 23.3444 39.4207 23.3284 39.4272C23.1704 39.4909 23.0397 39.5435 23.0485 39.9024C23.0582 40.2977 23.0727 40.3739 23.2708 40.4549C23.3719 40.4962 25.7938 40.4755 28.1421 40.4555C28.5767 40.4518 29.0088 40.4481 29.4232 40.4448C29.6285 39.849 29.6539 39.5389 29.4232 39.0595H24.6579Z" fill="#0B7DE3"/>
</svg>
