<svg width="89" height="40" viewBox="0 0 89 40" fill="none" xmlns="http://www.w3.org/2000/svg">
<path d="M68.1956 20.3901C69.626 20.5538 69.8328 20.5625 69.8328 20.5625C70.6255 20.5969 71.0477 20.5452 71.7284 20.7348C72.1076 20.8382 72.254 20.9416 72.5901 21.0794C72.5901 21.0794 73.5034 21.4586 75.0027 21.5964C77.9151 21.8549 81.7754 18.9856 84.3086 19.27C84.5327 19.2958 85.2048 19.3906 85.9458 19.0976C86.1181 19.0287 86.5059 18.8564 87.1521 18.236C87.5743 17.831 88.1603 17.1934 88.7031 16.2542C88.4877 15.9957 88.143 15.6682 87.6433 15.4787C87.1521 15.2891 86.773 15.3925 86.3852 15.3236C85.627 15.1943 84.9204 14.8669 84.2052 14.5739C80.7328 13.178 76.9759 12.73 73.2622 12.2905C71.8921 12.1268 70.5135 11.9631 69.1348 11.8856C67.4805 11.7908 67.6356 11.7563 65.266 11.5495C62.6121 11.3082 62.3622 11.2738 61.647 11.2565C60.0702 11.2135 58.7863 11.3255 57.9419 11.4289C59.2516 12.8075 66.3 20.1747 68.1956 20.3901Z" fill="#192E72"/>
<path d="M64.1457 33.7458C64.8954 34.1335 66.4291 33.8664 69.488 33.3408C69.488 33.3408 70.634 33.1857 71.5388 33.3322C71.6939 33.358 71.8403 33.3925 71.9954 33.4356C72.5038 33.5821 72.8743 33.6596 72.9433 33.6855C73.7705 33.9095 75.1319 33.5476 75.3473 33.4873C76.6656 33.1254 77.6048 32.5912 77.8461 32.4533C80.0433 31.2211 83.8863 29.7305 86.4196 29.1532C86.816 29.0584 87.8327 28.8602 88.298 28.0502C88.6168 27.4815 88.5737 26.8784 88.5479 26.6716C88.4186 25.2585 88.5048 21.5447 88.7289 16.2283C88.367 16.685 87.781 17.314 86.9366 17.8482C86.3938 18.1929 85.6958 18.5289 83.7485 18.9683C81.3013 19.5198 81.1204 19.2785 79.354 19.7438C77.7858 20.1574 76.4847 20.7347 75.9935 20.9502C73.8652 21.898 73.1673 22.5787 72.0299 22.3288C71.3837 22.1909 71.3147 21.9928 70.3066 21.5533C69.083 21.0191 67.308 20.5538 66.386 20.7347C63.0342 21.3896 61.4746 32.3671 64.1457 33.7458Z" fill="#192E72"/>
<path d="M15.8066 0.787354C19.2102 0.925219 22.9153 1.20957 26.8617 1.70071C30.3773 2.14016 33.6516 2.683 36.6588 3.29478C32.7985 4.95778 29.4639 5.52648 27.3012 5.74189C25.1729 5.95731 19.8995 6.48292 18.6932 4.49249C18.3055 3.85486 18.3744 3.01905 17.4438 1.99368C16.8837 1.3819 16.2547 1.00277 15.8066 0.787354Z" fill="#D74814"/>
<path d="M3.55396 30.0493C3.88139 30.394 4.50178 30.9713 5.45822 31.3763C6.41466 31.7898 7.27632 31.8502 7.75885 31.8502C8.18968 32.6429 9.25813 33.0565 10.137 32.7721C10.9987 32.4964 11.5415 31.7037 12.0327 30.9713C12.9977 29.5323 14.0317 28.1192 15.3242 26.9387C16.2634 26.0857 17.3319 25.3705 18.4003 24.6639C18.9518 24.2934 19.5119 23.9229 20.1581 23.742C20.3046 23.6989 21.218 23.5696 22.071 24.0005C23.5617 24.7501 23.7771 26.7147 23.8632 26.6888C23.9839 26.6544 24.0528 21.9842 21.1232 20.4418C19.0207 19.3303 16.4616 20.3987 15.9446 20.6141C12.834 21.9066 10.4645 25.224 8.35339 28.1967C7.86225 28.8774 6.91442 30.2647 5.40652 30.437C4.64826 30.5146 3.98478 30.2647 3.55396 30.0493Z" fill="#192E72"/>
<path d="M24.3372 32.8843C24.3889 33.1342 25.0696 36.5119 26.543 37.6406C26.8446 37.8733 27.172 38.0456 27.172 38.0456C27.6545 38.2955 28.3094 38.4851 29.4985 38.5971C32.0404 38.847 34.5737 39.2347 37.1242 39.3381C38.9423 39.3812 40.7604 39.1658 42.5699 38.9504C45.1376 38.6402 47.6967 38.33 50.2645 38.0284C56.2271 37.3132 58.0625 35.6416 58.9327 34.9436C59.7944 34.2543 60.4148 33.565 60.8025 33.0911C56.2444 34.2543 52.2118 34.935 48.9461 35.3486C48.5842 35.3917 44.8532 35.6416 37.3999 36.1241C33.7723 36.3568 31.8164 36.5205 29.3003 35.6933C27.0341 34.9436 25.3798 33.7632 24.3372 32.8843Z" fill="#192E72"/>
<path d="M6.84539 9.0161C9.37866 4.88876 8.91337 3.91508 10.5505 2.38133C10.8521 2.09698 13.3078 -0.151947 15.9445 0.494297C16.3064 0.580463 17.8574 0.899276 18.5381 2.209C18.8483 2.80354 18.9258 3.5101 19.2705 4.08741C20.1235 5.55223 22.1657 5.68148 23.8545 5.55223C26.9737 5.31958 30.0843 4.82844 33.126 4.08741C34.8493 3.6652 36.5726 3.15682 38.339 2.98449C42.5956 2.56228 46.8522 4.07018 50.5487 6.23294C54.2452 8.38709 57.5281 11.1875 61.0351 13.6432C62.3362 14.5566 63.7062 15.4613 64.5593 16.7969C65.1021 17.6499 65.4554 18.6839 66.2998 19.244C66.9202 19.649 67.6957 19.7179 68.3764 20.0281C69.0571 20.3383 69.6689 21.0793 69.3846 21.76C69.2467 21.1483 68.342 21.0362 67.8594 21.4326C67.3769 21.829 67.2218 22.4838 67.0926 23.0956C66.5239 25.7926 65.9638 28.4982 65.3951 31.1952C65.1107 32.548 65.016 33.2459 65.4209 33.5906C66.1103 34.1852 67.7646 33.2632 68.1179 33.065C67.6095 34.323 66.7824 35.9171 65.6191 35.9946C64.5162 36.0722 64.1457 34.7194 62.5602 33.9784C60.8283 33.1684 59.2084 33.5906 55.9341 34.6763C53.7713 35.3915 51.4879 35.6327 49.2218 35.8654C43.3022 36.4772 37.3395 37.0803 31.4285 36.4858C28.9986 36.2445 26.3533 35.6586 24.8627 33.7199C23.4582 31.8931 23.4754 29.3857 23.3806 27.0851C23.2858 24.7845 22.8378 22.1909 20.9421 20.8811C19.2619 19.7265 16.9096 20.0023 15.1432 21.0276C13.3768 22.053 12.0584 23.6815 10.7918 25.2842C9.68886 26.6715 8.59456 28.0501 7.49163 29.4374C7.01772 30.032 6.49211 30.661 5.7597 30.8333C5.00144 31.0142 4.23456 30.661 3.57109 30.256C1.92532 29.2478 0.443265 27.6279 0.426032 25.6978C0.417415 25.1636 0.477731 24.7069 0.951644 23.2766C1.9167 20.3986 2.45955 19.761 3.22642 17.7189C4.38966 14.6255 3.95883 13.9276 5.2944 11.4287C5.84586 10.3948 5.88033 10.5929 6.84539 9.0161Z" fill="#76B5E1"/>
<path d="M17.6505 19.0633C16.3839 19.7957 15.6428 19.2098 13.8678 20.1663C12.6356 20.8297 12.2048 21.4674 10.3695 23.1476C9.61983 23.8369 8.50829 24.8192 7.06932 25.9394C6.92284 25.9997 6.70743 26.0686 6.45755 26.1117C6.25075 26.1462 6.03533 26.1462 5.83715 26.1203C5.83715 26.1203 5.25984 26.0342 4.72561 25.5947C4.38095 25.3104 2.89028 23.6129 3.77779 18.2017C4.32063 14.9015 5.10474 10.1021 9.03391 7.25861C10.1799 6.43142 11.4465 5.50944 12.9975 5.70763C15.0397 5.96612 15.5825 7.9307 18.426 8.63726C20.1148 9.05948 20.5715 8.52525 21.1833 9.06809C22.9411 10.6018 21.5021 16.8489 17.6505 19.0633Z" fill="#0B7DE3"/>
<path d="M23.5269 9.65405C30.2823 7.9135 35.728 8.26678 39.0971 8.78377C39.9587 8.91302 55.8563 11.4808 56.7783 18.4516C57.011 20.2438 56.1924 21.8034 55.3135 23.4837C53.0215 27.8437 49.1957 29.8169 47.6447 30.5148C42.268 32.1347 37.8563 32.4363 34.8922 32.4105C31.48 32.3846 30.4546 31.9365 29.8084 31.5488C27.3096 30.0581 27.1459 27.5162 24.2076 23.2769C23.0185 21.5622 21.8898 20.3041 21.1918 19.5717C21.0023 18.4516 20.8299 16.4956 21.4072 14.1864C21.9328 12.0839 22.8721 10.5588 23.5269 9.65405Z" fill="#0B7DE3"/>
<path d="M21.192 19.5716C21.3471 17.7105 21.5453 16.0216 21.7521 14.5309C21.9589 13.0747 22.1484 11.9977 22.8722 10.8258C23.2341 10.2399 23.6219 9.81767 23.9062 9.53332C22.8722 9.30067 21.8382 9.07664 20.8042 8.84399C21.0024 9.8349 21.2609 11.8081 20.5888 14.1432C19.8478 16.7109 18.383 18.3395 17.6592 19.0546C18.1762 19.0116 18.8569 19.0116 19.641 19.1408C20.2528 19.2442 20.7784 19.4079 21.192 19.5716Z" fill="#04358B"/>
</svg>
