<svg width="64" height="50" viewBox="0 0 64 50" fill="none" xmlns="http://www.w3.org/2000/svg">
<path d="M26.7835 43.133V49.1605H13.7482C13.3351 49.1605 13 48.8289 13 48.4198V43.133C13 41.3473 14.463 39.8994 16.2678 39.8994H23.5157C25.3205 39.8994 26.7835 41.3473 26.7835 43.133V43.133Z" fill="#7FB7EA"/>
<path d="M19.9702 41.7207C19.3547 41.7207 18.8562 41.2271 18.8562 40.6184V37.5264H21.0841V40.6184C21.0841 41.2271 20.5853 41.7207 19.9702 41.7207Z" fill="#F8C298"/>
<path d="M14.0769 33.2138H25.8638L26.1747 31.7134C26.9797 27.827 23.9795 24.188 19.9705 24.188C15.9615 24.188 12.9613 27.827 13.7662 31.7134L14.0769 33.2138Z" fill="#DB6A0D"/>
<path d="M26.5212 33.8015C26.5212 34.6211 25.8496 35.2856 25.0213 35.2856C24.1934 35.2856 23.5215 34.6211 23.5215 33.8015C23.5215 33.6763 23.5368 33.5542 23.5675 33.4379C23.7309 32.7947 24.3196 32.3174 25.0213 32.3174C25.7321 32.3174 26.328 32.8068 26.4815 33.4638C26.5076 33.5724 26.5212 33.6853 26.5212 33.8015Z" fill="#F8C298"/>
<path d="M16.4193 33.8012C16.4193 34.6211 15.748 35.2854 14.9198 35.2854C14.0913 35.2854 13.4199 34.6211 13.4199 33.8012C13.4199 32.9817 14.0913 32.3174 14.9198 32.3174C15.748 32.3174 16.4193 32.9817 16.4193 33.8012Z" fill="#F8C298"/>
<path d="M15.2502 29.6504L15.9593 35.2682C16.2124 37.2698 17.9316 38.7722 19.9705 38.7722C22.0095 38.7722 23.7287 37.2698 23.9818 35.2682L24.1787 33.7097L24.6908 29.6504H15.2502Z" fill="#F8C298"/>
<path d="M16.2235 44.1125V49.1609H15.1013V44.1125C15.1013 43.8059 15.3519 43.5571 15.6623 43.5571C15.9721 43.5571 16.2235 43.8059 16.2235 44.1125V44.1125Z" fill="#588DBE"/>
<path d="M23.8768 44.1125V49.1609H22.7546V44.1125C22.7546 43.8059 23.0052 43.5571 23.3156 43.5571C23.6254 43.5571 23.8768 43.8059 23.8768 44.1125V44.1125Z" fill="#588DBE"/>
<path d="M14.3677 29.7661C14.3677 29.7661 15.3741 30.7538 18.0841 30.8254C18.2555 30.8299 18.3962 30.6935 18.3962 30.5239V30.126C18.3962 30.126 19.3816 30.7656 21.4694 30.8252C21.6411 30.8299 21.7815 30.6932 21.7815 30.5236V30.2979C21.7815 30.2979 22.5936 30.7884 25.0272 30.8271C25.1969 30.8296 25.3359 30.6935 25.3359 30.5256V29.0614C25.3359 28.8696 25.179 28.7144 24.9855 28.7144H15.4308C14.8438 28.7144 14.3677 29.1852 14.3677 29.7661Z" fill="#DB6A0D"/>
<path d="M48.4694 40.1347V48.2501C48.4694 48.7111 48.0918 49.085 47.6256 49.085H28.8437C28.3776 49.085 28 48.7111 28 48.2501V40.1347C28 37.4821 30.1726 35.332 32.8529 35.332H43.6165C46.2968 35.332 48.4694 37.4821 48.4694 40.1347V40.1347Z" fill="#0B7DE3"/>
<path d="M31.9536 37.9308V39.2184C31.9536 39.5173 32.1984 39.7595 32.5004 39.7595C32.8646 39.7595 33.1272 40.1053 33.0255 40.4516L32.5855 41.9502C32.5379 42.1129 32.5702 42.2886 32.6726 42.4244L34.7405 45.1663V35.332L32.1459 37.5192C32.024 37.6218 31.9536 37.7725 31.9536 37.9308V37.9308Z" fill="#0F69B9"/>
<path d="M44.7493 37.9308V39.2184C44.7493 39.5173 44.5045 39.7595 44.2025 39.7595C43.838 39.7595 43.5757 40.1053 43.6774 40.4516L44.117 41.9502C44.165 42.1129 44.1327 42.2886 44.0303 42.4244L41.9624 45.1663V35.332L44.557 37.5192C44.6789 37.6218 44.7493 37.7725 44.7493 37.9308V37.9308Z" fill="#0F69B9"/>
<path d="M34.74 35.332H41.9625V49.0853H34.74V35.332Z" fill="#192E72"/>
<path d="M38.3516 38.0361C37.4377 38.0361 36.697 37.3032 36.697 36.3993V31.8071H40.0058V36.3993C40.0058 37.3032 39.2651 38.0361 38.3516 38.0361Z" fill="#FFD6C0"/>
<path d="M29.599 25.4037H47.1029L47.5646 23.1757C48.7603 17.4046 44.3045 12 38.3513 12C32.3974 12 27.9419 17.4046 29.1376 23.1757L29.599 25.4037Z" fill="#9E3813"/>
<path d="M48.0794 26.2762C48.0794 27.4936 47.082 28.4801 45.8518 28.4801C44.6218 28.4801 43.6245 27.4936 43.6245 26.2762C43.6245 25.0591 44.6218 24.0723 45.8518 24.0723C47.082 24.0723 48.0794 25.0591 48.0794 26.2762Z" fill="#FFD6C0"/>
<path d="M33.0771 26.2762C33.0771 27.4936 32.0801 28.4801 30.8498 28.4801C29.6199 28.4801 28.6226 27.4936 28.6226 26.2762C28.6226 25.0591 29.6199 24.0723 30.8498 24.0723C32.0801 24.0723 33.0771 25.0591 33.0771 26.2762Z" fill="#FFD6C0"/>
<path d="M31.707 23.0058L32.3946 28.454C32.7699 31.427 35.3239 33.6582 38.3514 33.6582C41.3792 33.6582 43.9328 31.427 44.3081 28.454L44.9957 23.0058C45.2015 21.3772 43.9181 19.9385 42.2594 19.9385H34.4437C32.785 19.9385 31.5013 21.3772 31.707 23.0058V23.0058Z" fill="#FFD6C0"/>
<path d="M32.5863 44.1328V49.0852H31.3206V44.1328C31.3206 43.7874 31.604 43.5068 31.9534 43.5068C32.3028 43.5068 32.5863 43.7874 32.5863 44.1328Z" fill="#0F69B9"/>
<path d="M45.1491 44.1328V49.0852H43.8833V44.1328C43.8833 43.7874 44.1668 43.5068 44.5162 43.5068C44.8656 43.5068 45.1491 43.7874 45.1491 44.1328Z" fill="#0F69B9"/>
<path d="M30.77 19.0059V21.9564C30.77 22.2416 31.0049 22.4721 31.2935 22.4699C32.6517 22.4582 35.932 22.2239 38.4044 20.3777C40.877 22.2239 44.1573 22.4582 45.5156 22.4699C45.8042 22.4721 46.0387 22.2416 46.0387 21.9564V19.0059H30.77Z" fill="#9E3813"/>
<path d="M4.91455 13.5356L10.3207 18.8851" stroke="#FFE600" stroke-width="2"/>
<path d="M58.2385 14.5083L52.8324 19.8578" stroke="#FFE600" stroke-width="2"/>
<path d="M64 36.4468H56.3546" stroke="#FFE600" stroke-width="2"/>
<path d="M7.64551 36.4468H0.00011362" stroke="#FFE600" stroke-width="2"/>
<path d="M31.4268 0V7.56528" stroke="#FFE600" stroke-width="2"/>
<path d="M48.1428 4.2959L44.3201 10.8476" stroke="#FFE600" stroke-width="2"/>
<path d="M17.2085 4.2959L21.0312 10.8476" stroke="#FFE600" stroke-width="2"/>
</svg>
