<svg width="768" height="1067" viewBox="0 0 768 1067" fill="none" xmlns="http://www.w3.org/2000/svg">
<g style="mix-blend-mode:multiply">
<rect x="-1.26758" y="390.339" width="40.8598" height="40.8598" transform="rotate(25.4003 -1.26758 390.339)" fill="#D74814"/>
</g>
<rect x="107" y="694.695" width="13.7112" height="13.7112" transform="rotate(-45 107 694.695)" fill="#BB4014"/>
<g style="mix-blend-mode:multiply" opacity="0.7">
<rect x="696" y="77.5483" width="13.7112" height="13.7112" transform="rotate(-15 696 77.5483)" fill="#0B7DE3"/>
</g>
<g style="mix-blend-mode:multiply" opacity="0.7">
<rect x="691" y="731.548" width="13.7112" height="13.7112" transform="rotate(-15 691 731.548)" fill="#0B7DE3"/>
</g>
<g style="mix-blend-mode:multiply" opacity="0.7">
<rect x="133" y="51.5483" width="13.7112" height="13.7112" transform="rotate(-15 133 51.5483)" fill="#192E72"/>
</g>
<g style="mix-blend-mode:multiply">
<rect x="511.384" y="668.43" width="13.7112" height="13.7112" transform="rotate(133.459 511.384 668.43)" fill="#192E72"/>
</g>
<rect x="177.201" y="806.953" width="13.7112" height="13.7112" transform="rotate(143.02 177.201 806.953)" fill="#D74814"/>
<rect x="623.459" y="571" width="13.7112" height="13.7112" transform="rotate(38.0938 623.459 571)" fill="#D74814"/>
<g style="mix-blend-mode:multiply">
<rect x="767.955" y="391" width="39.5271" height="39.5271" transform="rotate(25.4003 767.955 391)" fill="#D74814"/>
</g>
<g style="mix-blend-mode:multiply">
<rect x="204.459" y="-0.000488281" width="13.7112" height="13.7112" transform="rotate(38.0938 204.459 -0.000488281)" fill="#C94414"/>
</g>
<rect x="614.973" y="1006.43" width="43.9467" height="43.9467" transform="rotate(30 614.973 1006.43)" fill="#192E72"/>
</svg>
