<svg width="808" height="995" viewBox="0 0 808 995" fill="none" xmlns="http://www.w3.org/2000/svg">
<g style="mix-blend-mode:multiply">
<rect x="16.9548" y="342.911" width="39.5271" height="39.5271" transform="rotate(25.4003 16.9548 342.911)" fill="#D74814"/>
</g>
<g style="mix-blend-mode:multiply" opacity="0.7">
<rect x="712.018" y="368.549" width="13.7112" height="13.7112" transform="rotate(-15 712.018 368.549)" fill="#0B7DE3"/>
</g>
<rect x="124.018" y="646.695" width="13.7112" height="13.7112" transform="rotate(-45 124.018 646.695)" fill="#BB4014"/>
<g style="mix-blend-mode:multiply" opacity="0.7">
<rect x="713.018" y="29.5487" width="13.7112" height="13.7112" transform="rotate(-15 713.018 29.5487)" fill="#0B7DE3"/>
</g>
<g style="mix-blend-mode:multiply" opacity="0.7">
<rect x="150.018" y="3.54871" width="13.7112" height="13.7112" transform="rotate(-15 150.018 3.54871)" fill="#192E72"/>
</g>
<g style="mix-blend-mode:multiply">
<rect x="767.2" y="434.531" width="44.7199" height="44.7199" transform="rotate(25.4003 767.2 434.531)" fill="#D74814"/>
</g>
<g style="mix-blend-mode:multiply">
<rect x="231.401" y="457.365" width="13.7112" height="13.7112" transform="rotate(-167.436 231.401 457.365)" fill="#0B7DE3"/>
</g>
<rect opacity="0.7" x="97.0181" y="982.313" width="12.802" height="12.802" transform="rotate(-15 97.0181 982.313)" fill="#D74814"/>
<rect opacity="0.7" x="738.018" y="903.313" width="12.802" height="12.802" transform="rotate(-15 738.018 903.313)" fill="#D74814"/>
</svg>
