<svg width="1856" height="749" viewBox="0 0 1856 749" fill="none" xmlns="http://www.w3.org/2000/svg">
<g style="mix-blend-mode:multiply">
<rect x="127.538" y="374.002" width="14" height="14" transform="rotate(133.459 127.538 374.002)" fill="#192E72"/>
</g>
<g style="mix-blend-mode:multiply">
<rect x="1727.8" y="228.655" width="14" height="14" transform="rotate(-46.5415 1727.8 228.655)" fill="#192E72"/>
</g>
<g style="mix-blend-mode:multiply">
<rect x="9.53833" y="78.002" width="14" height="14" transform="rotate(42.9465 9.53833 78.002)" fill="#0B7DE3"/>
</g>
<g style="mix-blend-mode:multiply">
<rect x="1845.8" y="524.655" width="14" height="14" transform="rotate(-137.053 1845.8 524.655)" fill="#0B7DE3"/>
</g>
<g style="mix-blend-mode:multiply">
<rect x="216.538" y="256.002" width="14" height="14" transform="rotate(38.0938 216.538 256.002)" fill="#C94414"/>
</g>
<g style="mix-blend-mode:multiply">
<rect x="1638.8" y="346.655" width="14" height="14" transform="rotate(-141.906 1638.8 346.655)" fill="#C94414"/>
</g>
<rect x="360.779" y="460.002" width="14" height="14" transform="rotate(38.0938 360.779 460.002)" fill="#D74814"/>
<rect x="1494.56" y="142.655" width="14" height="14" transform="rotate(-141.906 1494.56 142.655)" fill="#D74814"/>
<rect x="112.538" y="692.002" width="14" height="14" transform="rotate(38.0938 112.538 692.002)" fill="#D74814"/>
<g style="mix-blend-mode:multiply">
<rect x="301.779" y="564.002" width="14" height="14" transform="rotate(38.0938 301.779 564.002)" fill="#C94414"/>
</g>
<g style="mix-blend-mode:multiply">
<rect x="1553.56" y="38.6553" width="14" height="14" transform="rotate(-141.906 1553.56 38.6553)" fill="#C94414"/>
</g>
<rect x="394.538" y="87.002" width="15" height="14" transform="rotate(38.0938 394.538 87.002)" fill="#D74814"/>
<rect x="1460.8" y="515.655" width="15" height="14" transform="rotate(-141.906 1460.8 515.655)" fill="#D74814"/>
<rect x="215.538" y="37.002" width="14" height="14" transform="rotate(-167.436 215.538 37.002)" fill="#D74814"/>
<rect x="1639.8" y="565.655" width="14" height="14" transform="rotate(12.5636 1639.8 565.655)" fill="#D74814"/>
<rect x="89.5383" y="592.002" width="14" height="14" transform="rotate(-45 89.5383 592.002)" fill="#D74814"/>
<rect x="1765.8" y="10.6553" width="14" height="14" transform="rotate(135 1765.8 10.6553)" fill="#D74814"/>
<rect x="64.5383" y="260.002" width="14" height="14" transform="rotate(143.02 64.5383 260.002)" fill="#D74814"/>
<rect x="1790.8" y="342.655" width="14" height="14" transform="rotate(-36.9804 1790.8 342.655)" fill="#D74814"/>
<g style="mix-blend-mode:multiply">
<rect x="1537.53" y="711.655" width="13" height="13" transform="rotate(-154.6 1537.53 711.655)" fill="#192E72"/>
</g>
<g style="mix-blend-mode:multiply">
<rect x="1618" y="738.899" width="14" height="14" transform="rotate(-45 1618 738.899)" fill="#0B7DE3"/>
</g>
<g style="mix-blend-mode:multiply">
<rect x="1588.27" y="239" width="13" height="13" transform="rotate(25.4003 1588.27 239)" fill="#192E72"/>
</g>
</svg>
