<svg width="1874" height="761" viewBox="0 0 1874 761" fill="none" xmlns="http://www.w3.org/2000/svg">
<g style="mix-blend-mode:multiply">
<rect x="1842.64" y="191" width="14" height="14" transform="rotate(38.0938 1842.64 191)" fill="#C94414"/>
</g>
<g style="mix-blend-mode:multiply">
<rect x="1862.44" y="0.620117" width="14" height="14" transform="rotate(38.0938 1862.44 0.620117)" fill="#C94414"/>
</g>
<g style="mix-blend-mode:multiply">
<rect x="267.792" y="488.63" width="14" height="14" transform="rotate(133.459 267.792 488.63)" fill="#192E72"/>
</g>
<g style="mix-blend-mode:multiply">
<rect x="633.792" y="174.63" width="14" height="14" transform="rotate(133.459 633.792 174.63)" fill="#192E72"/>
</g>
<g style="mix-blend-mode:multiply">
<rect x="9.53833" y="256.838" width="14" height="14" transform="rotate(42.9465 9.53833 256.838)" fill="#0B7DE3"/>
</g>
<g style="mix-blend-mode:multiply">
<rect x="1294.54" y="279" width="14" height="14" transform="rotate(42.9465 1294.54 279)" fill="#D74814"/>
</g>
<g style="mix-blend-mode:multiply">
<rect x="932.538" y="435" width="14" height="14" transform="rotate(42.9465 932.538 435)" fill="#0B7DE3"/>
</g>
<g style="mix-blend-mode:multiply">
<rect x="687.538" y="425" width="14" height="14" transform="rotate(42.9465 687.538 425)" fill="#D74814"/>
</g>
<g style="mix-blend-mode:multiply">
<rect x="909.538" y="682" width="14" height="14" transform="rotate(42.9465 909.538 682)" fill="#D74814"/>
</g>
<g style="mix-blend-mode:multiply">
<rect x="1285.54" y="472" width="14" height="14" transform="rotate(42.9465 1285.54 472)" fill="#0B7DE3"/>
</g>
<g style="mix-blend-mode:multiply">
<rect x="944.538" y="254" width="14" height="14" transform="rotate(42.9465 944.538 254)" fill="#D74814"/>
</g>
<g style="mix-blend-mode:multiply">
<rect x="623.637" y="683" width="14" height="14" transform="rotate(38.0938 623.637 683)" fill="#C94414"/>
</g>
<g style="mix-blend-mode:multiply">
<rect x="1622.64" y="485" width="14" height="14" transform="rotate(38.0938 1622.64 485)" fill="#C94414"/>
</g>
<g style="mix-blend-mode:multiply">
<rect x="1254.64" y="691" width="14" height="14" transform="rotate(38.0938 1254.64 691)" fill="#C94414"/>
</g>
<rect x="330.665" y="287.71" width="14" height="14" transform="rotate(-167.436 330.665 287.71)" fill="#D74814"/>
<rect x="1723.67" y="272.71" width="14" height="14" transform="rotate(-167.436 1723.67 272.71)" fill="#D74814"/>
<rect x="63.6055" y="552.184" width="14" height="14" transform="rotate(143.02 63.6055 552.184)" fill="#D74814"/>
<g style="mix-blend-mode:multiply">
<rect x="18.135" y="692.106" width="14" height="14" transform="rotate(90.4368 18.135 692.106)" fill="#192E72"/>
</g>
<rect x="1721.8" y="760.655" width="14" height="14" transform="rotate(-141.906 1721.8 760.655)" fill="#D74814"/>
<g style="mix-blend-mode:multiply">
<rect x="296.811" y="741.002" width="13" height="13" transform="rotate(25.4003 296.811 741.002)" fill="#192E72"/>
</g>
</svg>
