<svg width="1820" height="860" viewBox="0 0 1820 860" fill="none" xmlns="http://www.w3.org/2000/svg">
<g clip-path="url(#clip0)">
<g style="mix-blend-mode:multiply">
<g style="mix-blend-mode:multiply">
<g style="mix-blend-mode:multiply">
<path d="M1489.65 135.866L1468.87 126L1459 146.777L1479.78 156.642L1489.65 135.866Z" fill="#D74814"/>
</g>
</g>
</g>
<g style="mix-blend-mode:multiply">
<g style="mix-blend-mode:multiply">
<g style="mix-blend-mode:multiply">
<path d="M118.547 541.658L127.978 531.705L118.026 522.274L108.594 532.227L118.547 541.658Z" fill="#192E72"/>
</g>
</g>
</g>
<g style="mix-blend-mode:multiply">
<g style="mix-blend-mode:multiply">
<g style="mix-blend-mode:multiply">
<path d="M19.5968 245.561L9.56028 236.219L0.218628 246.255L10.2551 255.597L19.5968 245.561Z" fill="#0B7DE3"/>
</g>
</g>
</g>
<g style="mix-blend-mode:multiply">
<g style="mix-blend-mode:multiply">
<g style="mix-blend-mode:multiply">
<path d="M39.7109 13.8153L39.8154 0.104527L26.1046 0L26.0001 13.7108L39.7109 13.8153Z" fill="#192E72"/>
</g>
</g>
</g>
<g style="mix-blend-mode:multiply">
<g style="mix-blend-mode:multiply">
<g style="mix-blend-mode:multiply">
<path d="M227.533 422.742L216.742 414.283L208.283 425.074L219.074 433.533L227.533 422.742Z" fill="#C94414"/>
</g>
</g>
</g>
<path d="M372.25 626.459L361.459 618L353 628.791L363.791 637.25L372.25 626.459Z" fill="#D74814"/>
<g style="mix-blend-mode:multiply">
<g style="mix-blend-mode:multiply">
<g style="mix-blend-mode:multiply">
<path d="M313.25 730.459L302.459 722L294 732.791L304.791 741.25L313.25 730.459Z" fill="#C94414"/>
</g>
</g>
</g>
<g style="mix-blend-mode:multiply">
<g style="mix-blend-mode:multiply">
<g style="mix-blend-mode:multiply">
<path d="M1687.66 759.637L1676.64 751L1668 762.018L1679.02 770.655L1687.66 759.637Z" fill="#C94414"/>
</g>
</g>
</g>
<g style="mix-blend-mode:multiply">
<g style="mix-blend-mode:multiply">
<g style="mix-blend-mode:multiply">
<path d="M1817.66 729.637L1806.64 721L1798 732.018L1809.02 740.655L1817.66 729.637Z" fill="#C94414"/>
</g>
</g>
</g>
<g style="mix-blend-mode:multiply">
<g style="mix-blend-mode:multiply">
<g style="mix-blend-mode:multiply">
<path d="M1538.25 849.459L1527.46 841L1519 851.791L1529.79 860.25L1538.25 849.459Z" fill="#C94414"/>
</g>
</g>
</g>
<path d="M202.725 192.107L216.108 195.09L219.091 181.707L205.708 178.725L202.725 192.107Z" fill="#D74814"/>
<path d="M699 192.382L712.383 195.365L715.366 181.982L701.983 179L699 192.382Z" fill="#D74814"/>
<g style="mix-blend-mode:multiply" opacity="0.7">
<g style="mix-blend-mode:multiply" opacity="0.7">
<g style="mix-blend-mode:multiply" opacity="0.7">
<path d="M1450.24 652L1437 655.549L1440.55 668.793L1453.79 665.244L1450.24 652Z" fill="#D74814"/>
</g>
</g>
</g>
<g style="mix-blend-mode:multiply" opacity="0.7">
<g style="mix-blend-mode:multiply" opacity="0.7">
<g style="mix-blend-mode:multiply" opacity="0.7">
<path d="M1813.24 214L1800 217.549L1803.55 230.793L1816.79 227.244L1813.24 214Z" fill="#0B7DE3"/>
</g>
</g>
</g>
<g style="mix-blend-mode:multiply" opacity="0.7">
<g style="mix-blend-mode:multiply" opacity="0.7">
<g style="mix-blend-mode:multiply" opacity="0.7">
<path d="M1229.24 683L1216 686.549L1219.55 699.793L1232.79 696.244L1229.24 683Z" fill="#9E3813"/>
</g>
</g>
</g>
<path d="M99.6953 741L90 750.695L99.6953 760.39L109.391 750.695L99.6953 741Z" fill="#D74814"/>
<g style="mix-blend-mode:multiply">
<g style="mix-blend-mode:multiply">
<g style="mix-blend-mode:multiply">
<path d="M544.695 681L535 690.695L544.695 700.39L554.391 690.695L544.695 681Z" fill="#0B7DE3"/>
</g>
</g>
</g>
<path d="M1809.7 353L1800 362.695L1809.7 372.39L1819.39 362.695L1809.7 353Z" fill="#BB4014"/>
<path d="M54.5552 426.508L65.5083 418.26L57.2605 407.307L46.3074 415.555L54.5552 426.508Z" fill="#D74814"/>
<g style="mix-blend-mode:multiply">
<g style="mix-blend-mode:multiply">
<g style="mix-blend-mode:multiply">
<path d="M330.055 54.4913L318.491 49L313 60.5645L324.564 66.0558L330.055 54.4913Z" fill="#192E72"/>
</g>
</g>
</g>
</g>
<defs>
<clipPath id="clip0">
<rect width="1820" height="860" fill="white"/>
</clipPath>
</defs>
</svg>
