<svg width="1820" height="860" viewBox="0 0 1820 860" fill="none" xmlns="http://www.w3.org/2000/svg">
<g clip-path="url(#clip0)">
<g style="mix-blend-mode:multiply">
<g style="mix-blend-mode:multiply">
<path d="M1489.65 135.866L1468.87 126L1459 146.777L1479.78 156.642L1489.65 135.866Z" fill="#D74814"/>
</g>
</g>
<g style="mix-blend-mode:multiply">
<g style="mix-blend-mode:multiply">
<path d="M118.547 541.658L127.978 531.705L118.026 522.274L108.594 532.227L118.547 541.658Z" fill="#192E72"/>
</g>
</g>
<g style="mix-blend-mode:multiply">
<g style="mix-blend-mode:multiply">
<path d="M19.5968 245.56L9.5603 236.219L0.218646 246.255L10.2551 255.597L19.5968 245.56Z" fill="#0B7DE3"/>
</g>
</g>
<g style="mix-blend-mode:multiply">
<g style="mix-blend-mode:multiply">
<path d="M39.7109 13.8153L39.8154 0.104492L26.1046 -3.54785e-05L26.0001 13.7108L39.7109 13.8153Z" fill="#192E72"/>
</g>
</g>
<g style="mix-blend-mode:multiply">
<g style="mix-blend-mode:multiply">
<path d="M227.533 422.742L216.742 414.283L208.283 425.074L219.074 433.533L227.533 422.742Z" fill="#C94414"/>
</g>
</g>
<path d="M372.25 626.459L361.459 618L353 628.791L363.791 637.25L372.25 626.459Z" fill="#D74814"/>
<g style="mix-blend-mode:multiply">
<g style="mix-blend-mode:multiply">
<path d="M313.25 730.459L302.459 722L294 732.791L304.791 741.25L313.25 730.459Z" fill="#C94414"/>
</g>
</g>
<g style="mix-blend-mode:multiply">
<g style="mix-blend-mode:multiply">
<path d="M1687.66 759.637L1676.64 751L1668 762.018L1679.02 770.655L1687.66 759.637Z" fill="#C94414"/>
</g>
</g>
<g style="mix-blend-mode:multiply">
<g style="mix-blend-mode:multiply">
<path d="M1817.66 729.637L1806.64 721L1798 732.018L1809.02 740.655L1817.66 729.637Z" fill="#C94414"/>
</g>
</g>
<g style="mix-blend-mode:multiply">
<g style="mix-blend-mode:multiply">
<path d="M1538.25 849.459L1527.46 841L1519 851.791L1529.79 860.25L1538.25 849.459Z" fill="#C94414"/>
</g>
</g>
<path d="M405.25 253.459L394.459 245L386 255.791L396.791 264.25L405.25 253.459Z" fill="#D74814"/>
<path d="M202.725 192.107L216.108 195.09L219.091 181.707L205.708 178.725L202.725 192.107Z" fill="#D74814"/>
<path d="M699 192.382L712.383 195.365L715.366 181.982L701.983 179L699 192.382Z" fill="#D74814"/>
<g style="mix-blend-mode:multiply" opacity="0.7">
<g style="mix-blend-mode:multiply" opacity="0.7">
<path d="M1450.24 652.001L1437 655.549L1440.55 668.793L1453.79 665.245L1450.24 652.001Z" fill="#D74814"/>
</g>
</g>
<g style="mix-blend-mode:multiply" opacity="0.7">
<g style="mix-blend-mode:multiply" opacity="0.7">
<path d="M1554.24 336.001L1541 339.549L1544.55 352.793L1557.79 349.245L1554.24 336.001Z" fill="#0B7DE3"/>
</g>
</g>
<g style="mix-blend-mode:multiply" opacity="0.7">
<g style="mix-blend-mode:multiply" opacity="0.7">
<path d="M1678.24 397.001L1665 400.549L1668.55 413.793L1681.79 410.245L1678.24 397.001Z" fill="#192E72"/>
</g>
</g>
<g style="mix-blend-mode:multiply">
<g style="mix-blend-mode:multiply">
<path d="M1200 447.382L1213.38 450.365L1216.36 436.982L1202.98 433.999L1200 447.382Z" fill="#0B7DE3"/>
</g>
</g>
<g style="mix-blend-mode:multiply">
<g style="mix-blend-mode:multiply">
<path d="M1157.7 618L1148 627.695L1157.7 637.391L1167.39 627.695L1157.7 618Z" fill="#0B7DE3"/>
</g>
</g>
<g style="mix-blend-mode:multiply" opacity="0.7">
<g style="mix-blend-mode:multiply" opacity="0.7">
<path d="M1562.24 485.001L1549 488.549L1552.55 501.793L1565.79 498.245L1562.24 485.001Z" fill="#0B7DE3"/>
</g>
</g>
<g style="mix-blend-mode:multiply" opacity="0.7">
<g style="mix-blend-mode:multiply" opacity="0.7">
<path d="M1229.24 683.001L1216 686.549L1219.55 699.793L1232.79 696.245L1229.24 683.001Z" fill="#9E3813"/>
</g>
</g>
<path d="M99.6953 741L90 750.695L99.6953 760.39L109.391 750.695L99.6953 741Z" fill="#D74814"/>
<g style="mix-blend-mode:multiply">
<g style="mix-blend-mode:multiply">
<path d="M544.695 681L535 690.695L544.695 700.391L554.391 690.695L544.695 681Z" fill="#0B7DE3"/>
</g>
</g>
<g style="mix-blend-mode:multiply">
<g style="mix-blend-mode:multiply">
<path d="M876.695 395L867 404.695L876.695 414.39L886.391 404.695L876.695 395Z" fill="#0B7DE3"/>
</g>
</g>
<g style="mix-blend-mode:multiply">
<g style="mix-blend-mode:multiply">
<path d="M1151 123.382L1164.38 126.365L1167.36 112.982L1153.98 110L1151 123.382Z" fill="#0B7DE3"/>
</g>
</g>
<path d="M1809.7 353L1800 362.695L1809.7 372.39L1819.39 362.695L1809.7 353Z" fill="#BB4014"/>
<path d="M54.5552 426.508L65.5083 418.26L57.2605 407.307L46.3074 415.554L54.5552 426.508Z" fill="#D74814"/>
<g style="mix-blend-mode:multiply">
<g style="mix-blend-mode:multiply">
<path d="M330.056 54.4913L318.491 49L313 60.5645L324.564 66.0558L330.056 54.4913Z" fill="#192E72"/>
</g>
</g>
<g style="mix-blend-mode:multiply">
<g style="mix-blend-mode:multiply">
<path d="M562.056 167.491L550.491 162L545 173.564L556.564 179.056L562.056 167.491Z" fill="#192E72"/>
</g>
</g>
<path opacity="0.7" d="M803.366 610L791 613.313L794.313 625.679L806.679 622.365L803.366 610Z" fill="#D74814"/>
<g style="mix-blend-mode:multiply">
<g style="mix-blend-mode:multiply">
<path d="M1167 303.382L1180.38 306.365L1183.36 292.982L1169.98 289.999L1167 303.382Z" fill="#0B7DE3"/>
</g>
</g>
</g>
<defs>
<clipPath id="clip0">
<rect width="1820" height="860" fill="white"/>
</clipPath>
</defs>
</svg>
