<svg width="1807" height="593" viewBox="0 0 1807 593" fill="none" xmlns="http://www.w3.org/2000/svg">
<g style="mix-blend-mode:multiply">
<rect x="128.759" y="353.705" width="14" height="14" transform="rotate(133.459 128.759 353.705)" fill="#192E72"/>
</g>
<g style="mix-blend-mode:multiply">
<rect x="1698.96" y="582.324" width="14" height="14" transform="rotate(133.459 1698.96 582.324)" fill="#192E72"/>
</g>
<g style="mix-blend-mode:multiply">
<rect x="1705.76" y="303.705" width="13.7112" height="13.7112" transform="rotate(133.459 1705.76 303.705)" fill="#192E72"/>
</g>
<g style="mix-blend-mode:multiply">
<rect x="10.3416" y="58.2188" width="14" height="14" transform="rotate(42.9465 10.3416 58.2188)" fill="#0B7DE3"/>
</g>
<g style="mix-blend-mode:multiply">
<rect x="1580.54" y="286.839" width="14" height="14" transform="rotate(42.9465 1580.54 286.839)" fill="#0B7DE3"/>
</g>
<g style="mix-blend-mode:multiply">
<rect x="1587.34" y="8.21875" width="13.7112" height="13.7112" transform="rotate(42.9465 1587.34 8.21875)" fill="#0B7DE3"/>
</g>
<g style="mix-blend-mode:multiply">
<rect x="217.523" y="236.283" width="14" height="14" transform="rotate(38.0938 217.523 236.283)" fill="#C94414"/>
</g>
<g style="mix-blend-mode:multiply">
<rect x="1787.72" y="464.902" width="14" height="14" transform="rotate(38.0938 1787.72 464.902)" fill="#C94414"/>
</g>
<g style="mix-blend-mode:multiply">
<rect x="1795" y="186" width="14" height="14" transform="rotate(38.0938 1795 186)" fill="#C94414"/>
</g>
<g style="mix-blend-mode:multiply">
<rect x="303.24" y="544" width="14" height="14" transform="rotate(38.0938 303.24 544)" fill="#C94414"/>
</g>
<rect x="216.889" y="17.0903" width="14" height="14" transform="rotate(-167.436 216.889 17.0903)" fill="#D74814"/>
<rect x="1787.09" y="245.71" width="14" height="14" transform="rotate(-167.436 1787.09 245.71)" fill="#D74814"/>
<rect x="66.2896" y="240.26" width="14" height="14" transform="rotate(143.02 66.2896 240.26)" fill="#D74814"/>
<rect x="1636.49" y="468.88" width="14" height="14" transform="rotate(143.02 1636.49 468.88)" fill="#D74814"/>
<rect x="1643.29" y="190.26" width="13.7112" height="13.7112" transform="rotate(143.02 1643.29 190.26)" fill="#D74814"/>
<g style="mix-blend-mode:multiply">
<rect x="1698.96" y="582.324" width="14" height="14" transform="rotate(133.459 1698.96 582.324)" fill="#192E72"/>
</g>
<g style="mix-blend-mode:multiply">
<rect x="10.3416" y="58.2188" width="14" height="14" transform="rotate(42.9465 10.3416 58.2188)" fill="#0B7DE3"/>
</g>
<g style="mix-blend-mode:multiply">
<rect x="1787.72" y="464.903" width="14" height="14" transform="rotate(38.0938 1787.72 464.903)" fill="#C94414"/>
</g>
<rect x="66.2896" y="240.26" width="14" height="14" transform="rotate(143.02 66.2896 240.26)" fill="#D74814"/>
<rect x="1636.49" y="468.88" width="14" height="14" transform="rotate(143.02 1636.49 468.88)" fill="#D74814"/>
</svg>
