<svg width="1870" height="879" viewBox="0 0 1870 879" fill="none" xmlns="http://www.w3.org/2000/svg">
<g clip-path="url(#clip0)">
<g style="mix-blend-mode:multiply">
<g style="mix-blend-mode:multiply">
<path d="M1490.32 135.866L1469.54 126L1459.68 146.777L1480.45 156.642L1490.32 135.866Z" fill="#D74814"/>
</g>
</g>
<g style="mix-blend-mode:multiply">
<g style="mix-blend-mode:multiply">
<path d="M119.219 541.658L128.65 531.705L118.697 522.274L109.266 532.227L119.219 541.658Z" fill="#192E72"/>
</g>
</g>
<g style="mix-blend-mode:multiply">
<g style="mix-blend-mode:multiply">
<path d="M20.2685 245.561L10.2321 236.219L0.890399 246.255L10.9269 255.597L20.2685 245.561Z" fill="#0B7DE3"/>
</g>
</g>
<g style="mix-blend-mode:multiply">
<g style="mix-blend-mode:multiply">
<path d="M40.3826 13.8153L40.4872 0.104492L26.7764 -3.54785e-05L26.6718 13.7108L40.3826 13.8153Z" fill="#192E72"/>
</g>
</g>
<g style="mix-blend-mode:multiply">
<g style="mix-blend-mode:multiply">
<path d="M228.205 422.742L217.414 414.283L208.955 425.074L219.745 433.533L228.205 422.742Z" fill="#C94414"/>
</g>
</g>
<path d="M372.921 626.459L362.131 618L353.672 628.791L364.462 637.25L372.921 626.459Z" fill="#D74814"/>
<path d="M124.921 867.459L114.131 859L105.672 869.791L116.462 878.25L124.921 867.459Z" fill="#D74814"/>
<g style="mix-blend-mode:multiply">
<g style="mix-blend-mode:multiply">
<path d="M313.921 730.459L303.131 722L294.672 732.791L305.462 741.25L313.921 730.459Z" fill="#C94414"/>
</g>
</g>
<g style="mix-blend-mode:multiply">
<g style="mix-blend-mode:multiply">
<path d="M1688.33 759.637L1677.31 751L1668.67 762.018L1679.69 770.655L1688.33 759.637Z" fill="#C94414"/>
</g>
</g>
<g style="mix-blend-mode:multiply">
<g style="mix-blend-mode:multiply">
<path d="M1818.33 729.637L1807.31 721L1798.67 732.018L1809.69 740.655L1818.33 729.637Z" fill="#C94414"/>
</g>
</g>
<g style="mix-blend-mode:multiply">
<g style="mix-blend-mode:multiply">
<path d="M1538.92 849.459L1528.13 841L1519.67 851.791L1530.46 860.25L1538.92 849.459Z" fill="#C94414"/>
</g>
</g>
<path d="M405.921 253.459L395.131 245L386.672 255.791L397.462 264.25L405.921 253.459Z" fill="#D74814"/>
<path d="M203.397 192.107L216.78 195.09L219.762 181.707L206.379 178.725L203.397 192.107Z" fill="#D74814"/>
<path d="M699.672 192.382L713.055 195.365L716.037 181.982L702.654 179L699.672 192.382Z" fill="#D74814"/>
<g style="mix-blend-mode:multiply" opacity="0.7">
<g style="mix-blend-mode:multiply" opacity="0.7">
<path d="M1450.92 652L1437.67 655.549L1441.22 668.793L1454.46 665.244L1450.92 652Z" fill="#D74814"/>
</g>
</g>
<g style="mix-blend-mode:multiply" opacity="0.7">
<g style="mix-blend-mode:multiply" opacity="0.7">
<path d="M1554.92 336L1541.67 339.549L1545.22 352.793L1558.46 349.244L1554.92 336Z" fill="#0B7DE3"/>
</g>
</g>
<g style="mix-blend-mode:multiply" opacity="0.7">
<g style="mix-blend-mode:multiply" opacity="0.7">
<path d="M1678.92 397L1665.67 400.549L1669.22 413.793L1682.46 410.244L1678.92 397Z" fill="#192E72"/>
</g>
</g>
<g style="mix-blend-mode:multiply">
<g style="mix-blend-mode:multiply">
<path d="M1200.67 447.382L1214.05 450.365L1217.03 436.982L1203.65 434L1200.67 447.382Z" fill="#0B7DE3"/>
</g>
</g>
<g style="mix-blend-mode:multiply">
<g style="mix-blend-mode:multiply">
<path d="M1158.37 618L1148.67 627.695L1158.37 637.39L1168.06 627.695L1158.37 618Z" fill="#0B7DE3"/>
</g>
</g>
<g style="mix-blend-mode:multiply" opacity="0.7">
<g style="mix-blend-mode:multiply" opacity="0.7">
<path d="M1562.92 485L1549.67 488.549L1553.22 501.793L1566.46 498.244L1562.92 485Z" fill="#0B7DE3"/>
</g>
</g>
<g style="mix-blend-mode:multiply" opacity="0.7">
<g style="mix-blend-mode:multiply" opacity="0.7">
<path d="M1229.92 683L1216.67 686.549L1220.22 699.793L1233.46 696.244L1229.92 683Z" fill="#9E3813"/>
</g>
</g>
<path d="M100.367 741L90.6718 750.695L100.367 760.39L110.062 750.695L100.367 741Z" fill="#D74814"/>
<g style="mix-blend-mode:multiply">
<g style="mix-blend-mode:multiply">
<path d="M545.367 681L535.672 690.695L545.367 700.39L555.062 690.695L545.367 681Z" fill="#0B7DE3"/>
</g>
</g>
<g style="mix-blend-mode:multiply">
<g style="mix-blend-mode:multiply">
<path d="M877.367 395L867.672 404.695L877.367 414.39L887.062 404.695L877.367 395Z" fill="#0B7DE3"/>
</g>
</g>
<g style="mix-blend-mode:multiply">
<g style="mix-blend-mode:multiply">
<path d="M1151.67 123.382L1165.05 126.365L1168.03 112.982L1154.65 110L1151.67 123.382Z" fill="#0B7DE3"/>
</g>
</g>
<path d="M55.2269 426.508L66.18 418.26L57.9323 407.307L46.9791 415.555L55.2269 426.508Z" fill="#D74814"/>
<g style="mix-blend-mode:multiply">
<g style="mix-blend-mode:multiply">
<path d="M330.727 54.4913L319.163 49L313.671 60.5645L325.236 66.0558L330.727 54.4913Z" fill="#192E72"/>
</g>
</g>
<g style="mix-blend-mode:multiply">
<g style="mix-blend-mode:multiply">
<path d="M562.727 167.491L551.163 162L545.672 173.564L557.236 179.056L562.727 167.491Z" fill="#192E72"/>
</g>
</g>
<path opacity="0.7" d="M804.038 610L791.672 613.313L794.985 625.679L807.351 622.365L804.038 610Z" fill="#D74814"/>
</g>
<defs>
<clipPath id="clip0">
<rect width="1869" height="879" fill="white" transform="translate(0.671753)"/>
</clipPath>
</defs>
</svg>
