<svg width="0" height="0" class="hidden">
	<symbol viewBox="0 0 227 228" xmlns="http://www.w3.org/2000/svg" shape-rendering="geometricPrecision" fill-rule="evenodd" clip-rule="evenodd" id="whatsapp">
		<path d="M56 211l-4-2-42 11 11-42-3-4A113 113 0 01114 1a112 112 0 01113 113 113 113 0 01-171 97zm122-68l4 3c1 2 1 9-1 17-3 7-17 15-23 16s-14 1-22-2l-19-7c-32-14-54-44-58-50v-1c-2-3-14-19-14-35s8-24 11-28l1-1c3-3 7-4 9-4a135 135 0 017 0c2 0 5 0 7 6l4 9a736 736 0 007 22l-1 1-3 5-1 2-4 4c-1 2-3 3-1 7 2 3 9 14 19 23 11 10 20 14 25 16l2 1c3 2 5 2 7-1l11-13c2-3 5-3 8-2a567 567 0 0125 12z"/>
	</symbol>

	<symbol viewBox="0 0 550 550" xmlns="http://www.w3.org/2000/svg" shape-rendering="geometricPrecision" fill-rule="evenodd" clip-rule="evenodd" id="telegram">
		<path d="M229 331l-4 70c6 0 9-3 13-7l33-32 69 51c13 7 22 3 25-12l45-212c5-19-7-27-19-22L126 269c-18 7-18 18-3 22l68 21 157-99c8-5 14-2 9 3L229 331zm46 219a275 275 0 110-550 275 275 0 010 550z"/>
	</symbol>

	<symbol viewBox="0 0 985 480" xmlns="http://www.w3.org/2000/svg" shape-rendering="geometricPrecision" fill-rule="evenodd" clip-rule="evenodd" id="vk">
		<path d="M541 478s18-2 27-10c8-8 8-22 8-22s-1-68 35-78c36-9 83 66 132 95 37 21 65 17 65 17l132-2s68-4 36-50c-3-4-19-34-98-97-82-65-71-54 28-167 60-69 85-111 77-129-7-18-52-13-52-13l-148 1s-11-1-19 3-13 13-13 13-23 54-54 99c-66 95-93 101-103 95-26-14-19-56-19-86 0-92 16-131-32-141-16-3-28-6-69-6-53 0-98 0-123 11-17 7-30 23-22 23 10 2 32 6 44 19 15 18 14 58 14 58s9 109-20 122c-20 9-47-9-106-96-30-45-53-94-53-94s-4-9-12-14c-10-6-23-8-23-8L33 22s-22 0-29 8c-7 7-1 22-1 22s110 220 235 331c114 102 244 95 244 95h59z"/>
	</symbol>

	<symbol viewBox="0 0 100 86" xmlns="http://www.w3.org/2000/svg" shape-rendering="geometricPrecision" fill-rule="evenodd" clip-rule="evenodd" id="new-tab">
		<path d="M100 31v1l-1 2-2 1a5 5 0 01-5-1l-1-2V14L50 49l-2 1a6 6 0 01-6-1l-1-1a4 4 0 010-4l1-1L83 8H64h-2l-1-1-1-1a3 3 0 010-4l1-1 1-1h33l3 1 1 1 1 2v27zM9 78h73V43h9v35l-3 6-6 2H9l-6-2-3-6V16l3-6 6-2h41v8H9v62z"/>
	</symbol>

	<symbol viewBox="0 0 393 562" xmlns="http://www.w3.org/2000/svg" shape-rendering="geometricPrecision" fill-rule="evenodd" clip-rule="evenodd" id="location">
		<path d="M197 0C88 0 0 88 0 197c0 147 197 365 197 365s196-218 196-365C393 88 305 0 197 0zm0 267a70 70 0 110-141 70 70 0 010 141z"/>
	</symbol>

	<symbol viewBox="0 0 492 492" xmlns="http://www.w3.org/2000/svg" shape-rendering="geometricPrecision" fill-rule="evenodd" clip-rule="evenodd" id="phone">
		<path d="M465 342c-34 0-67-6-98-16-9-3-20-1-28 7l-60 60A412 412 0 0199 213l60-60c8-8 10-19 7-28-10-31-16-64-16-98 0-15-12-27-27-27H27C12 0 0 12 0 27c0 257 208 465 465 465 15 0 27-12 27-27v-96c0-15-12-27-27-27z"/>
	</symbol>

	<symbol viewBox="0 0 300 300" xmlns="http://www.w3.org/2000/svg" shape-rendering="geometricPrecision" fill-rule="evenodd" clip-rule="evenodd" id="vk-circle">
		<path d="M0 150a150 150 0 11300 0 150 150 0 01-300 0zm158 49s3 0 4-2c2-1 2-4 2-4s-1-12 5-14 14 12 22 17c6 4 10 4 10 4l22-1s11 0 6-9l-16-18c-14-12-12-10 4-31 10-13 14-21 13-25-1-3-9-2-9-2h-24l-3 1-2 2-9 19c-11 18-15 19-17 17-4-2-3-10-3-15 0-18 3-25-5-27l-11-1c-9 0-16 0-20 2-3 1-5 4-4 4 2 1 6 1 8 4s2 11 2 11 1 20-3 23c-4 1-8-2-18-18l-8-18-2-3-4-1H75s-3 0-4 2c-2 1-1 4-1 4s18 41 39 61c18 19 39 18 39 18h10z"/>
	</symbol>

	<symbol viewBox="0 0 300 300" xmlns="http://www.w3.org/2000/svg" shape-rendering="geometricPrecision" fill-rule="evenodd" clip-rule="evenodd" id="instagram-circle">
		<path d="M167.7 132.3a25 25 0 10-35.4 35.4 25 25 0 0035.4-35.4z"/><path fill-rule="evenodd" clip-rule="evenodd" d="M150 88.5h-6.7c-14 0-16.7.1-23.6.4-7.3.4-11.3 1.6-14 2.6a23.3 23.3 0 00-8.6 5.6 23.2 23.2 0 00-5.6 8.6c-1 2.7-2.2 6.7-2.5 14-.4 7.9-.5 10.2-.5 30.3 0 20 0 22.4.5 30.3.3 7.3 1.5 11.3 2.5 13.9 1.2 3.3 3.2 6.2 5.6 8.6 2.5 2.5 5.4 4.4 8.7 5.6 2.6 1 6.6 2.3 13.9 2.6 7.9.4 10.3.4 30.3.4s22.4 0 30.3-.4c7.3-.3 11.3-1.5 14-2.6 3.4-1.3 6-3 8.6-5.6 2.4-2.4 4.4-5.3 5.6-8.6 1-2.6 2.2-6.6 2.6-14 .3-7.8.4-10.2.4-30.2s0-22.4-.4-30.3a41.4 41.4 0 00-2.6-14c-1.4-3.4-3-6-5.6-8.6a23.2 23.2 0 00-8.7-5.6c-2.6-1-6.6-2.2-13.9-2.6-7.9-.3-10.3-.4-30.3-.4zm33.7 15.1a9 9 0 1112.7 12.7 9 9 0 01-12.7-12.7zm-61 19.2a38.5 38.5 0 1154.5 54.4 38.5 38.5 0 01-54.4-54.4z"/><path fill-rule="evenodd" clip-rule="evenodd" d="M150 0a150 150 0 100 300 150 150 0 000-300zm-31 75.5c8-.4 10.6-.5 31-.5s23 0 31 .5c7.9.3 13.3 1.6 18.1 3.4 5 2 9.6 4.9 13.3 8.7 3.8 3.7 6.8 8.3 8.7 13.3a55.6 55.6 0 013.4 18.2c.4 8 .5 10.5.5 30.9s0 23-.5 31c-.3 7.9-1.6 13.4-3.4 18.1-2 5-4.9 9.6-8.7 13.3a36.7 36.7 0 01-13.3 8.7 55 55 0 01-18.2 3.5c-8 .3-10.5.4-30.9.4s-23 0-31-.4A55 55 0 01101 221c-5-2-9.6-4.9-13.3-8.7a36.7 36.7 0 01-8.7-13.3 55.1 55.1 0 01-3.4-18.2c-.4-8-.5-10.5-.5-30.9s0-23 .5-31c.3-8 1.6-13.4 3.4-18.1 2-5 4.9-9.6 8.7-13.3 3.7-3.8 8.3-6.8 13.3-8.7a55 55 0 0118.2-3.4z"/>
	</symbol>

	<symbol viewBox="0 0 300 300" xmlns="http://www.w3.org/2000/svg" shape-rendering="geometricPrecision" fill-rule="evenodd" clip-rule="evenodd" id="telegram-circle">
		<path d="M150 300a150 150 0 100-300 150 150 0 000 300zm-27-81c3 0 5-2 7-4l18-18 38 28c6 4 11 2 13-6l25-116c2-10-4-15-11-12L69 147c-10 4-10 9-2 12l37 11 86-54c4-2 8-1 5 2l-70 63-2 38z"/>
	</symbol>

	<symbol viewBox="0 0 300 300" xmlns="http://www.w3.org/2000/svg" shape-rendering="geometricPrecision" fill-rule="evenodd" clip-rule="evenodd" id="whatsapp-circle">
		<path d="M300 150a150 150 0 11-300 0 150 150 0 01300 0zm-145 83a89 89 0 10-77-44l-13 46 47-12c13 7 28 10 43 10z"/><path fill-rule="evenodd" clip-rule="evenodd" d="M117 208l-3-2-28 8 8-28-2-2a74 74 0 0163-114 74 74 0 0174 74 74 74 0 01-112 64zm80-45l3 2-1 11c-2 5-11 10-15 11l-14-1-13-5c-21-9-35-29-38-33v-1c-1-1-9-12-9-23 0-10 5-15 7-18l6-3h5c1 0 3 0 5 4l2 6 5 10v4l-1 1-2 3a85 85 0 00-3 4c-1 1-2 2-1 5 1 2 6 9 13 15s13 9 16 10l1 1c3 1 4 1 5-1l7-8c2-2 3-2 5-1a371 371 0 0117 7z"/>
	</symbol>

	<symbol viewBox="0 0 300 300" xmlns="http://www.w3.org/2000/svg" shape-rendering="geometricPrecision" fill-rule="evenodd" clip-rule="evenodd" id="youtube-circle">
		<path d="M150 0a150 150 0 100 300 150 150 0 000-300zm63 98c6 2 12 8 14 15 3 13 3 40 3 40s0 26-3 39c-2 7-8 13-14 15-13 3-63 3-63 3s-50 0-63-3c-6-2-12-8-14-15-3-13-3-39-3-39s0-27 3-40c2-7 8-13 14-15 13-3 63-3 63-3s50 0 63 3z"/><path fill-rule="evenodd" clip-rule="evenodd" d="M135 180v-50l40 25-40 25z"/>
	</symbol>

	<symbol viewBox="0 0 208 208" xmlns="http://www.w3.org/2000/svg" shape-rendering="geometricPrecision" fill-rule="evenodd" clip-rule="evenodd" id="close">
		<path d="M104 75l71-71 32-3-3 32-71 71 71 71 3 32-32-3-71-71-71 71-32 3 3-32 71-71L4 33 1 1l32 3 71 71z"/>
	</symbol>
</svg>