<svg width="2882" height="491" fill="none" xmlns="http://www.w3.org/2000/svg"><path fill-rule="evenodd" clip-rule="evenodd" d="M862 279v200h151v-44H912V279h-50zm227 0a104 104 0 00-59 96 109 109 0 0030 76 107 107 0 00116 23 103 103 0 0056-57 109 109 0 00-51-138h-92zm238 0a106 106 0 00-60 96 108 108 0 0031 76 105 105 0 0076 31c16 0 31-4 46-11s26-17 35-29l-33-31c-6 8-13 15-21 19s-16 6-25 6c-8 0-16-1-23-4s-13-7-18-13c-5-5-9-12-12-19a70 70 0 010-48c2-8 6-15 11-20 5-6 11-10 18-13s14-5 22-5c10 0 18 2 27 7 8 5 15 11 22 20l34-32c-9-12-21-22-36-29l-1-1h-93zm159 0v200h50v-94l75 94h66l-94-110 82-90h-59l-70 83v-83h-50zm215 0v200h105c10 0 20-1 28-4 9-3 16-7 22-12s11-12 14-19c4-7 5-15 5-23 0-11-3-20-10-28-6-9-15-15-25-20 9-4 16-11 21-18 6-8 9-17 9-27 0-8-2-15-6-22-3-7-8-13-14-18l-14-9h-135zm-517 72a73 73 0 010 49 52 52 0 01-50 37 55 55 0 01-38-17c-4-6-8-12-11-20a73 73 0 0111-68c5-6 11-10 18-13a49 49 0 0159 13c5 5 9 12 11 19zm612-38h-45v42h45c7 0 12-2 17-6 4-4 6-9 6-15 0-7-2-12-6-16s-10-5-17-5zm4 125c7 0 14-2 18-6s7-9 7-16-3-13-7-17-11-6-18-6h-49v45h49zm283-11c5-11 7-24 7-38V272h-50v117c0 14-4 26-11 34-7 9-17 13-29 13-13 0-22-4-30-13-7-8-11-20-11-34V272h-50v117c0 14 2 27 6 39 5 11 11 21 18 29 8 8 18 14 29 18 11 5 23 7 37 7s26-2 38-7a81 81 0 0046-48zm31 24l26-38c14 10 26 17 36 21s20 7 30 7 19-2 25-6c6-5 9-10 9-16s-2-11-6-14-10-6-20-8l-44-7c-16-3-28-10-37-20-9-9-13-21-13-36 0-20 7-35 22-47 14-12 34-18 59-18a143 143 0 0184 27l-26 37c-10-7-20-13-30-17s-20-6-30-6-18 2-24 6c-5 4-8 8-8 14 0 5 2 9 6 12 3 3 9 5 17 7l41 7c19 3 34 10 44 20 9 10 14 22 14 38 0 20-7 36-23 49a99 99 0 01-64 19c-16 0-31-3-46-8-15-6-29-13-42-23zm187-179v43h66v164h50V315h66v-43h-182zm210 207V272h155v43h-104v39h73v41h-73v41h105v43h-156zm195-207v207h50v-76h33l37 76h56l-43-83a63 63 0 0038-58 63 63 0 00-43-61c-9-3-18-5-29-5h-99zm50 42h44c8 0 14 2 19 7 5 4 7 10 7 18 0 7-2 13-7 17-5 5-11 7-19 7h-44v-49z" fill="#0B7DE3"/><path fill-rule="evenodd" clip-rule="evenodd" d="M625 279v203h112c11 0 20-1 29-4s17-8 24-13a55 55 0 0021-44c-1-11-4-21-11-30s-16-16-27-21c9-5 17-11 22-19 6-9 9-18 9-28a54 54 0 00-21-44H625zm53 27h48c7 0 13 2 18 6 4 4 7 10 7 17 0 6-3 12-7 16-5 4-11 6-18 6h-48v-45zm71 127c-4 4-11 6-19 6h-52v-48h52c8 0 15 2 19 7 5 4 7 10 7 17 0 8-2 13-7 18z" fill="#192E72"/><path fill-rule="evenodd" clip-rule="evenodd" d="M1277 235l25-37c15 10 27 17 37 21s20 6 30 6c11 0 19-2 26-6 6-4 9-9 9-16 0-6-2-10-6-13-4-4-11-6-21-8l-44-8c-16-3-28-9-37-19s-13-22-13-36c0-20 7-36 22-48 14-11 34-17 59-17a146 146 0 0185 27l-26 37c-10-8-20-14-30-17-10-4-21-6-31-6s-18 2-23 6c-6 3-9 8-9 14 0 5 2 9 6 12 3 3 9 5 18 6l41 7c19 4 33 10 43 20s15 23 15 39c0 19-7 34-21 46h-140l-15-10zm-18 10l-72-188h-57l-73 188h51l11-31h76l10 31h54zm-228 0v-25H929V57h-50v188h152zm866 18h26v-75h34l37 75h56l-43-83a63 63 0 0018-105 81 81 0 00-52-19h-100v189h24v18zm-64-18v-24h-106v-41h74v-41h-74V99h105V57h-155v188h156zm-251 0V100h66V57h-183v43h66v145h51zm-401-70h-48l24-69 24 69zm742-76h45c8 0 14 2 19 6 5 5 7 11 7 18s-2 13-7 18c-5 4-11 7-19 7h-45V99z" fill="#0B7DE3"/><path fill-rule="evenodd" clip-rule="evenodd" d="M742 0H613v245h195a74 74 0 0026-36c2-6 3-12 3-20 0-13-5-25-13-36-9-10-20-19-33-24 11-6 21-14 28-24s10-21 10-33c0-10-2-20-7-29-4-9-10-16-18-23a105 105 0 00-62-20zm-65 52h58c9 0 16 2 21 7 6 5 8 11 8 20 0 8-2 14-8 19-5 5-12 8-21 8h-58V52zm74 159l-11 1h-63v-58h63c10 0 17 2 23 8 6 5 9 12 9 21v1c0 8 0 16-6 21l-8 5-7 1z" fill="#192E72"/><path fill="#0B7DE3" d="M744 242l14 14-14 14-13-14zM797 221l10 10-10 10-10-10zM783 266l14 13-14 14-13-14z"/><path fill="#192E72" d="M665 222l17 17-17 17-17-17zM910 221l13 13-13 14-14-14z"/><path fill="#0B7DE3" d="M923 173l11 11-11 10-10-10z"/><path fill="#192E72" d="M1053 250l17 17-17 17-17-17z"/><path fill="#0B7DE3" d="M859 252l13 14-13 13-14-13zM937 305l10 10-10 10-10-10zM997 218l17 17-17 17-17-17zM1148 266l14 13-14 14-13-14z"/><path fill="#192E72" d="M1162 165l13 14-13 14-14-14z"/><path fill="#0B7DE3" d="M1296 262l10 10-10 10-10-10zM1426 243l14 14-14 13-13-13zM1354 199l17 17-17 17-17-17z"/><path fill="#192E72" d="M1569 266l10 10-10 10-10-10z"/><path fill="#0B7DE3" d="M1609 199l17 17-17 17-16-17zM1722 270l13 14-13 14-14-14zM1833 229l10 10-10 10-11-10z"/><path fill="#192E72" d="M1867 254l17 17-17 17-17-17zM1440 173l13 14-13 14-14-14z"/><path fill="#0B7DE3" d="M1263 339l10 10-10 10-10-10z"/><path fill="#192E72" d="M1249 234l17 17-17 17-17-17z"/><path d="M1849 261c0-10 9-19 19-19h26c21 0 21 37 0 37h-26c-10 0-19-8-19-18z" fill="#D74814"/><path d="M1722 243l150-1v38l-150 1c-9 0-6-38 0-38z" fill="#192E72"/><path d="M1708 256c0-4 7-6 12-5v22c-8 0-12-2-12-7v-10z" fill="#192E72"/><path d="M209 324h-14s-7 7-6 18 18 20 18 20-7-13-8-20c-1-8 10-18 10-18z" fill="#D74814"/><path d="M156 350s3-7 8 0c6 7 10 14 44 14 35 0 36-11 36-11l4 8-11 11-54-4-27-11v-7z" fill="#192E72"/><path d="M38 199h63l19-28H38l7-26c-13-6-29 6-29 31H0v17h9c0 20 4 27 24 30l5-24z" fill="#D74814"/><path fill-rule="evenodd" clip-rule="evenodd" d="M35 272h68l116 34 9 20s-44-5-56 5c-11 11-7 19-7 19h-8v6l4 3s-15 7-15 15v8l-2 20c-2 6-22 34-22 34-5 12-5 19 0 32 0 0 6 23-15 23-13 0-21-10-26-17l-6-6-8 1c-9 0-24 1-27-1-4-2-11-11-17-21-2-4 0-6 1-9 1-2 2-5 1-7l-4-7-5-9c0-4 2-6 4-9l3-4c1-5 7-21 17-36 7-9 16-16 22-21l7-6c19-24 9-50-9-50-19 0-24-3-25-17zm30 164H39v6l8 14h26v-9l-8-11z" fill="#192E72"/><path d="M65 434l-13-5c33-74 56-86 99-74 5 1 2 10-7 7-28-9-45 4-79 72zM105 205H65c-10 0-10 3-3 10l-7 23h33l17-33z" fill="#0B7DE3"/><path fill-rule="evenodd" clip-rule="evenodd" d="M501 155h17l5 15-1 16H309v67l-35 1-6 6-1 16 7 5h258l-1 14-18 11H330l-19 23-4 3-5 5-18 24c-3 3-33 3-36 0l-33-54-113-34H35v2h-5c-2-1-2-4-2-5l9-29c0-4 2-7 5-7h39l13-28H61l-1-6 10-15h37s15-26 20-26h11s2-9 8-9c5 0 157-2 159 0l4 5h192zm-197 0H176v2h-2v2h131v-2h-1v-2zm-133 2h-18v2h18v-2z" fill="#76B5E1"/><path d="M88 219H72l-6 15h14l8-15z" fill="#192E72"/><path d="M315 160l-18-18-194 127 115 32 30 54v9h69l2-3h3l23-24 5-11h12l2-2h6l1 2h19l2-2h7l1 2h18l3-3h7l1 3h19l2-3h6l2 3h19l2-3h6l1 3h29c4 0 5-3 7-7 3 0 4 0 4-2h2l12-9 24-27 11-11-10-10H329l-8-6-2-76-4-18z" fill="#76B5E1"/><path d="M365 301v-25l-5 22-42 51 2 8 45-56zM361 306v4h13l1-4h5v3h152l-6-6H365l-4 3zM281 318h-21c-11 0-4 12-4 12l9 15c2 5 8 5 10 0l10-15c3-6 1-12-4-12zM207 244h-13l-10 23h-78l11 4h78l12-27z" fill="#0B7DE3"/><path d="M309 161l-11-13-2-2h6l1 3h9l1-3h17l1 3h9l1-3h18l1 3h8l1-3h17l1 3h9l1-3h18l1 3h8l1-3h18l2 3h8l1-3h17c2 0 4 3 4 5 0 0 58-2 59-1l2 5h6l5-12c1-2 3-3 5-3h16l8 8v10l-9 8 1 10 2 1 2 17-1 2s-1 4 1 6c1 2 9 7 9 9s-2 2-2 6c0 3 4 5 5 8 2 3 4 17 4 25l-4 21-4 5s4 3 4 5c1 1-1 28-1 28l-5 3h-45c11-12 22-22 33-41l-2-6H322l-8-7-3-39 1-40-3-18z" fill="#D74814"/><rect width="6.8" height="38.7" rx="3.4" transform="rotate(-7 1694 -4565)" fill="#9E3813"/><path d="M548 225h-7l2 5h12l-7-5zM575 230h-11l-2-5h7l6 5zM321 219h-10l3 39 8 7h242l2 6-1 3h17c4-3 5-14 6-22H321l5-4v-4h95c0-3 5-3 5 0h5c2 0 3-2 3-5v-5c0-3-2-3-8-3 0 3-5 3-5 0h-95v-7l-5-5z" fill="#9E3813"/><rect x="236.6" y="301.7" width="66.9" height="10.4" rx="5.2" fill="#0B7DE3"/><rect x="225.5" y="284" width="89.2" height="10.4" rx="5.2" fill="#0B7DE3"/><path d="M218 246h86v11h-90l4-11zM224 229h80v10h-84l4-10zM200 204h-80v-11h84l-4 11zM230 211h74v10h-78l4-10zM237 193h67v11h-71l4-11zM187 239h-67v-10h71l-4 10zM242 176h62v10h-66l4-10z" fill="#0B7DE3"/><path fill="#9E3813" d="M325 190h207v7H325zM325 211h207v6H325zM325 176h207v6H325z"/></svg>