<svg width="790" height="215" viewBox="0 0 790 215" fill="none" xmlns="http://www.w3.org/2000/svg">
<path d="M86.825 214.112C70.1791 214.112 54.0229 212.056 38.3562 207.944C22.6895 203.831 9.96037 198.348 0.168701 191.494L19.2625 148.606C28.4666 154.677 39.1395 159.573 51.2812 163.294C63.4229 167.015 75.3687 168.875 87.1187 168.875C109.444 168.875 120.606 163.294 120.606 152.131C120.606 146.256 117.375 141.948 110.912 139.206C104.646 136.269 94.4625 133.233 80.3625 130.1C64.8916 126.771 51.9666 123.246 41.5874 119.525C31.2083 115.608 22.2979 109.44 14.8562 101.019C7.41453 92.5979 3.6937 81.2395 3.6937 66.9437C3.6937 54.4104 7.12078 43.15 13.9749 33.1624C20.8291 22.9791 31.0124 14.95 44.5249 9.07496C58.2333 3.19995 74.977 0.262451 94.7562 0.262451C108.269 0.262451 121.585 1.82912 134.706 4.96246C147.827 7.89995 159.381 12.3062 169.369 18.1812L151.45 61.3624C131.867 50.7875 112.871 45.5 94.4625 45.5C82.9083 45.5 74.4875 47.2625 69.2 50.7874C63.9125 54.1166 61.2687 58.5229 61.2687 64.0062C61.2687 69.4895 64.402 73.602 70.6687 76.3437C76.9354 79.0854 87.0208 81.9249 100.925 84.8624C116.592 88.1916 129.517 91.8145 139.7 95.7312C150.079 99.452 158.99 105.523 166.431 113.944C174.069 122.169 177.887 133.429 177.887 147.725C177.887 160.062 174.46 171.225 167.606 181.212C160.752 191.2 150.471 199.229 136.762 205.3C123.054 211.175 106.408 214.112 86.825 214.112Z" fill="#626262"/>
<path d="M342.523 170.05H255.573L239.417 210H180.079L270.848 4.37495H328.129L419.192 210H358.679L342.523 170.05ZM325.485 127.162L299.048 61.3624L272.61 127.162H325.485Z" fill="#626262"/>
<path d="M493.843 49.3187V94.5562H584.612V139.5H493.843V210H435.681V4.37495H596.949V49.3187H493.843Z" fill="#626262"/>
<path d="M789.239 165.056V210H624.151V4.37495H785.42V49.3187H681.726V83.9812H773.082V127.456H681.726V165.056H789.239Z" fill="#626262"/>
</svg>
